# Blender v2.79 (sub 0) OBJ File: ''
# www.blender.org
o root_shape-6eeb4821f24c11e8bb4e9cb6d0f27d4d
v -0.019485 -0.028500 0.011250
v -0.011250 -0.028500 0.019486
v -0.011250 -0.028500 -0.019486
v -0.019485 -0.028500 -0.011250
v 0.019486 -0.028500 -0.011250
v 0.011250 -0.028500 -0.019486
v 0.011250 -0.028500 0.019486
v 0.019486 -0.028500 0.011250
v 0.000000 -0.028500 0.022500
v 0.022500 -0.028500 0.000000
v 0.000000 -0.028500 -0.022500
v -0.022500 -0.028500 0.000000
v -0.019485 0.028500 0.011250
v -0.011250 0.028500 0.019486
v -0.011250 0.028500 -0.019486
v -0.019485 0.028500 -0.011250
v 0.019486 0.028500 -0.011250
v 0.011250 0.028500 -0.019486
v 0.011250 0.028500 0.019486
v 0.019486 0.028500 0.011250
v 0.000000 0.028500 0.022500
v 0.022500 0.028500 0.000000
v 0.000000 0.028500 -0.022500
v -0.022500 0.028500 0.000000
v -0.010825 0.006250 0.050000
v 0.006250 0.010825 0.050000
v 0.010825 0.006250 0.050000
v 0.010825 -0.006250 0.050000
v -0.006250 -0.010825 0.050000
v -0.010825 -0.006250 0.050000
v -0.012500 0.000000 0.050000
v 0.000000 -0.012500 0.050000
v 0.006250 -0.010825 0.050000
v 0.012500 0.000000 0.050000
v 0.000000 0.012500 0.050000
v -0.006250 0.010825 0.050000
v -0.010825 -0.006250 0.050000
v -0.012500 0.000000 0.050000
v -0.012500 0.000000 0.026651
v -0.010825 -0.006250 0.027099
v -0.006250 -0.010825 0.050000
v -0.010825 -0.006250 0.050000
v -0.010825 -0.006250 0.027099
v -0.006250 -0.010825 0.028325
v 0.000000 -0.012500 0.050000
v -0.006250 -0.010825 0.050000
v -0.006250 -0.010825 0.028325
v 0.000000 -0.012500 0.030000
v 0.006250 -0.010825 0.050000
v 0.006250 -0.010825 0.028325
v 0.000000 -0.012500 0.050000
v 0.000000 -0.012500 0.030000
v 0.010825 -0.006250 0.050000
v 0.010825 -0.006250 0.027099
v 0.006250 -0.010825 0.050000
v 0.006250 -0.010825 0.028325
v 0.012500 0.000000 0.050000
v 0.012500 0.000000 0.026651
v 0.010825 -0.006250 0.050000
v 0.010825 -0.006250 0.027099
v 0.010825 0.006250 0.050000
v 0.012500 0.000000 0.050000
v 0.012500 0.000000 0.026651
v 0.010825 0.006250 0.027099
v 0.006250 0.010825 0.050000
v 0.010825 0.006250 0.050000
v 0.010825 0.006250 0.027099
v 0.006250 0.010825 0.028325
v 0.000000 0.012500 0.050000
v 0.006250 0.010825 0.050000
v 0.006250 0.010825 0.028325
v 0.000000 0.012500 0.030000
v -0.006250 0.010825 0.050000
v -0.006250 0.010825 0.028325
v 0.000000 0.012500 0.050000
v 0.000000 0.012500 0.030000
v -0.010825 0.006250 0.050000
v -0.010825 0.006250 0.027099
v -0.006250 0.010825 0.050000
v -0.006250 0.010825 0.028325
v -0.012500 0.000000 0.050000
v -0.012500 0.000000 0.026651
v -0.010825 0.006250 0.050000
v -0.010825 0.006250 0.027099
v -0.015000 -0.020000 0.025981
v -0.025981 -0.020000 0.015000
v -0.011250 -0.028500 0.019486
v -0.019485 -0.028500 0.011250
v 0.000000 -0.020000 0.030000
v -0.015000 -0.020000 0.025981
v 0.000000 -0.028500 0.022500
v -0.011250 -0.028500 0.019486
v 0.015000 -0.020000 0.025981
v 0.000000 -0.020000 0.030000
v 0.011250 -0.028500 0.019486
v 0.000000 -0.028500 0.022500
v 0.025981 -0.020000 0.015000
v 0.015000 -0.020000 0.025981
v 0.019486 -0.028500 0.011250
v 0.011250 -0.028500 0.019486
v 0.030000 -0.020000 0.000000
v 0.025981 -0.020000 0.015000
v 0.022500 -0.028500 0.000000
v 0.019486 -0.028500 0.011250
v 0.025981 -0.020000 -0.015000
v 0.030000 -0.020000 0.000000
v 0.019486 -0.028500 -0.011250
v 0.022500 -0.028500 0.000000
v 0.015000 -0.020000 -0.025981
v 0.025981 -0.020000 -0.015000
v 0.011250 -0.028500 -0.019486
v 0.019486 -0.028500 -0.011250
v 0.000000 -0.020000 -0.030000
v 0.015000 -0.020000 -0.025981
v 0.000000 -0.028500 -0.022500
v 0.011250 -0.028500 -0.019486
v -0.015000 -0.020000 -0.025981
v 0.000000 -0.020000 -0.030000
v -0.011250 -0.028500 -0.019486
v 0.000000 -0.028500 -0.022500
v -0.025981 -0.020000 -0.015000
v -0.015000 -0.020000 -0.025981
v -0.019485 -0.028500 -0.011250
v -0.011250 -0.028500 -0.019486
v -0.030000 -0.020000 0.000000
v -0.025981 -0.020000 -0.015000
v -0.022500 -0.028500 0.000000
v -0.019485 -0.028500 -0.011250
v -0.025981 -0.020000 0.015000
v -0.030000 -0.020000 0.000000
v -0.019485 -0.028500 0.011250
v -0.022500 -0.028500 0.000000
v -0.015000 0.020000 0.025981
v -0.025981 0.020000 0.015000
v -0.011250 0.028500 0.019486
v -0.019485 0.028500 0.011250
v 0.000000 0.020000 0.030000
v -0.015000 0.020000 0.025981
v 0.000000 0.028500 0.022500
v -0.011250 0.028500 0.019486
v 0.015000 0.020000 0.025981
v 0.000000 0.020000 0.030000
v 0.011250 0.028500 0.019486
v 0.000000 0.028500 0.022500
v 0.025981 0.020000 0.015000
v 0.015000 0.020000 0.025981
v 0.019486 0.028500 0.011250
v 0.011250 0.028500 0.019486
v 0.030000 0.020000 0.000000
v 0.025981 0.020000 0.015000
v 0.022500 0.028500 0.000000
v 0.019486 0.028500 0.011250
v 0.025981 0.020000 -0.015000
v 0.030000 0.020000 0.000000
v 0.019486 0.028500 -0.011250
v 0.022500 0.028500 0.000000
v 0.015000 0.020000 -0.025981
v 0.025981 0.020000 -0.015000
v 0.011250 0.028500 -0.019486
v 0.019486 0.028500 -0.011250
v 0.000000 0.020000 -0.030000
v 0.015000 0.020000 -0.025981
v 0.000000 0.028500 -0.022500
v 0.011250 0.028500 -0.019486
v -0.015000 0.020000 -0.025981
v 0.000000 0.020000 -0.030000
v -0.011250 0.028500 -0.019486
v 0.000000 0.028500 -0.022500
v -0.025981 0.020000 -0.015000
v -0.015000 0.020000 -0.025981
v -0.019485 0.028500 -0.011250
v -0.011250 0.028500 -0.019486
v -0.030000 0.020000 0.000000
v -0.025981 0.020000 -0.015000
v -0.022500 0.028500 0.000000
v -0.019485 0.028500 -0.011250
v -0.025981 0.020000 0.015000
v -0.030000 0.020000 0.000000
v -0.019485 0.028500 0.011250
v -0.022500 0.028500 0.000000
v -0.025981 -0.020000 -0.015000
v -0.025981 0.020000 -0.015000
v -0.030000 -0.020000 0.000000
v -0.030000 0.020000 0.000000
v -0.015000 -0.020000 -0.025981
v -0.015000 0.020000 -0.025981
v -0.025981 -0.020000 -0.015000
v -0.025981 0.020000 -0.015000
v 0.000000 -0.020000 -0.030000
v 0.000000 0.020000 -0.030000
v -0.015000 -0.020000 -0.025981
v -0.015000 0.020000 -0.025981
v 0.015000 -0.020000 -0.025981
v 0.015000 0.020000 -0.025981
v 0.000000 -0.020000 -0.030000
v 0.000000 0.020000 -0.030000
v 0.025981 -0.020000 -0.015000
v 0.025981 0.020000 -0.015000
v 0.015000 -0.020000 -0.025981
v 0.015000 0.020000 -0.025981
v 0.030000 -0.020000 0.000000
v 0.030000 0.020000 0.000000
v 0.025981 -0.020000 -0.015000
v 0.025981 0.020000 -0.015000
v 0.025981 -0.020000 0.015000
v 0.025981 0.020000 0.015000
v 0.030000 -0.020000 0.000000
v 0.030000 0.020000 0.000000
v 0.015000 -0.020000 0.025981
v 0.015000 0.020000 0.025981
v 0.025981 -0.020000 0.015000
v 0.025981 0.020000 0.015000
v 0.000000 -0.020000 0.030000
v 0.000000 0.020000 0.030000
v 0.015000 -0.020000 0.025981
v 0.015000 0.020000 0.025981
v 0.006250 -0.010825 0.028325
v 0.000000 -0.012500 0.030000
v 0.010825 -0.006250 0.027099
v 0.012500 0.000000 0.026651
v 0.010825 0.006250 0.027099
v 0.006250 0.010825 0.028325
v 0.000000 0.012500 0.030000
v -0.015000 -0.020000 0.025981
v -0.015000 0.020000 0.025981
v 0.000000 -0.020000 0.030000
v 0.000000 0.020000 0.030000
v -0.010825 -0.006250 0.027099
v -0.012500 0.000000 0.026651
v -0.006250 -0.010825 0.028325
v 0.000000 -0.012500 0.030000
v -0.006250 0.010825 0.028325
v 0.000000 0.012500 0.030000
v -0.010825 0.006250 0.027099
v -0.025981 -0.020000 0.015000
v -0.025981 0.020000 0.015000
v -0.015000 -0.020000 0.025981
v -0.015000 0.020000 0.025981
v -0.030000 -0.020000 0.000000
v -0.030000 0.020000 0.000000
v -0.025981 -0.020000 0.015000
v -0.025981 0.020000 0.015000
vt 0.875000 0.375000
vt 0.824759 0.515625
vt 0.687500 0.618570
vt 0.824759 0.234375
vt 0.500000 0.656250
vt 0.312500 0.618570
vt 0.500000 0.093750
vt 0.175241 0.234375
vt 0.312500 0.131430
vt 0.175241 0.515625
vt 0.125000 0.375000
vt 0.687500 0.131430
vt 0.875000 0.375000
vt 0.687500 0.618570
vt 0.824759 0.515625
vt 0.824759 0.234375
vt 0.500000 0.656250
vt 0.312500 0.618570
vt 0.500000 0.093750
vt 0.125000 0.375000
vt 0.312500 0.131430
vt 0.175241 0.234375
vt 0.175241 0.515625
vt 0.687500 0.131430
vt 0.500000 1.000000
vt 0.604167 1.000000
vt 0.291667 1.000000
vt 0.680422 1.000000
vt 0.395833 1.000000
vt 0.319578 1.000000
vt 0.680422 1.000000
vt 0.604167 1.000000
vt 0.708333 1.000000
vt 0.500000 1.000000
vt 0.395833 1.000000
vt 0.319578 1.000000
vt 0.319578 0.713742
vt 0.319578 1.000000
vt 0.291667 1.000000
vt 0.291667 0.708133
vt 0.395833 0.729066
vt 0.395833 1.000000
vt 0.319578 1.000000
vt 0.319578 0.713742
vt 0.500000 0.750000
vt 0.500000 1.000000
vt 0.395833 1.000000
vt 0.395833 0.729066
vt 0.604167 0.729066
vt 0.604167 1.000000
vt 0.500000 1.000000
vt 0.500000 0.750000
vt 0.680422 0.713742
vt 0.680422 1.000000
vt 0.604167 1.000000
vt 0.604167 0.729066
vt 0.708333 0.708133
vt 0.708333 1.000000
vt 0.680422 1.000000
vt 0.680422 0.713742
vt 0.680422 0.713742
vt 0.680422 1.000000
vt 0.708333 1.000000
vt 0.708333 0.708133
vt 0.604167 0.729066
vt 0.604167 1.000000
vt 0.680422 1.000000
vt 0.680422 0.713742
vt 0.500000 0.750000
vt 0.500000 1.000000
vt 0.604167 1.000000
vt 0.604167 0.729066
vt 0.395833 0.729066
vt 0.395833 1.000000
vt 0.500000 1.000000
vt 0.500000 0.750000
vt 0.319578 0.713742
vt 0.319578 1.000000
vt 0.395833 1.000000
vt 0.395833 0.729066
vt 0.291667 0.708133
vt 0.291667 1.000000
vt 0.319578 1.000000
vt 0.319578 0.713742
vt 0.066987 0.562500
vt 0.175241 0.515625
vt 0.312500 0.618570
vt 0.250000 0.699759
vt 0.250000 0.699759
vt 0.312500 0.618570
vt 0.500000 0.656250
vt 0.500000 0.750000
vt 0.500000 0.750000
vt 0.500000 0.656250
vt 0.687500 0.618570
vt 0.750000 0.699759
vt 0.750000 0.699759
vt 0.687500 0.618570
vt 0.824759 0.515625
vt 0.933013 0.562500
vt 0.933013 0.562500
vt 0.824759 0.515625
vt 0.875000 0.375000
vt 1.000000 0.375000
vt 1.000000 0.375000
vt 0.875000 0.375000
vt 0.824759 0.234375
vt 0.933013 0.187500
vt 0.933013 0.187500
vt 0.824759 0.234375
vt 0.687500 0.131430
vt 0.750000 0.050240
vt 0.750000 0.050240
vt 0.687500 0.131430
vt 0.500000 0.093750
vt 0.500000 0.000000
vt 0.500000 0.000000
vt 0.500000 0.093750
vt 0.312500 0.131430
vt 0.250000 0.050240
vt 0.250000 0.050240
vt 0.312500 0.131430
vt 0.175241 0.234375
vt 0.066987 0.187500
vt 0.066987 0.187500
vt 0.175241 0.234375
vt 0.125000 0.375000
vt 0.000000 0.375000
vt 0.000000 0.375000
vt 0.125000 0.375000
vt 0.175241 0.515625
vt 0.066987 0.562500
vt 0.066987 0.562500
vt 0.250000 0.699759
vt 0.312500 0.618570
vt 0.175241 0.515625
vt 0.250000 0.699759
vt 0.500000 0.750000
vt 0.500000 0.656250
vt 0.312500 0.618570
vt 0.500000 0.750000
vt 0.750000 0.699759
vt 0.687500 0.618570
vt 0.500000 0.656250
vt 0.750000 0.699759
vt 0.933013 0.562500
vt 0.824759 0.515625
vt 0.687500 0.618570
vt 0.933013 0.562500
vt 1.000000 0.375000
vt 0.875000 0.375000
vt 0.824759 0.515625
vt 1.000000 0.375000
vt 0.933013 0.187500
vt 0.824759 0.234375
vt 0.875000 0.375000
vt 0.933013 0.187500
vt 0.750000 0.050240
vt 0.687500 0.131430
vt 0.824759 0.234375
vt 0.750000 0.050240
vt 0.500000 0.000000
vt 0.500000 0.093750
vt 0.687500 0.131430
vt 0.500000 0.000000
vt 0.250000 0.050240
vt 0.312500 0.131430
vt 0.500000 0.093750
vt 0.250000 0.050240
vt 0.066987 0.187500
vt 0.175241 0.234375
vt 0.312500 0.131430
vt 0.066987 0.187500
vt 0.000000 0.375000
vt 0.125000 0.375000
vt 0.175241 0.234375
vt 0.000000 0.375000
vt 0.066987 0.562500
vt 0.175241 0.515625
vt 0.125000 0.375000
vt 0.066987 0.187500
vt 0.066987 0.187500
vt 0.000000 0.375000
vt 0.000000 0.375000
vt 0.250000 0.050240
vt 0.250000 0.050240
vt 0.066987 0.187500
vt 0.066987 0.187500
vt 0.500000 0.000000
vt 0.500000 0.000000
vt 0.250000 0.050240
vt 0.250000 0.050240
vt 0.750000 0.050240
vt 0.750000 0.050240
vt 0.500000 0.000000
vt 0.500000 0.000000
vt 0.933013 0.187500
vt 0.933013 0.187500
vt 0.750000 0.050240
vt 0.750000 0.050240
vt 1.000000 0.375000
vt 1.000000 0.375000
vt 0.933013 0.187500
vt 0.933013 0.187500
vt 0.933013 0.562500
vt 0.933013 0.562500
vt 1.000000 0.375000
vt 1.000000 0.375000
vt 0.750000 0.699759
vt 0.750000 0.699759
vt 0.933013 0.562500
vt 0.933013 0.562500
vt 0.604167 0.729066
vt 0.500000 0.750000
vt 0.500000 0.750000
vt 0.604167 0.729066
vt 0.500000 0.750000
vt 0.500000 0.750000
vt 0.750000 0.699759
vt 0.708333 0.708133
vt 0.680422 0.713742
vt 0.750000 0.699759
vt 0.680422 0.713742
vt 0.291667 0.708133
vt 0.250000 0.699759
vt 0.319578 0.713742
vt 0.395833 0.729066
vt 0.319578 0.713742
vt 0.250000 0.699759
vt 0.395833 0.729066
vt 0.500000 0.750000
vt 0.500000 0.750000
vt 0.500000 0.750000
vt 0.500000 0.750000
vt 0.066987 0.562500
vt 0.066987 0.562500
vt 0.250000 0.699759
vt 0.250000 0.699759
vt 0.000000 0.375000
vt 0.000000 0.375000
vt 0.066987 0.562500
vt 0.066987 0.562500
vn 0.0000 -1.0000 0.0000
vn 0.0000 1.0000 0.0000
vn 0.0000 0.0000 1.0000
vn -0.9659 -0.2588 0.0000
vn -0.7071 -0.7071 0.0000
vn -0.2588 -0.9659 0.0000
vn 0.2588 -0.9659 0.0000
vn 0.7071 -0.7071 0.0000
vn 0.9659 -0.2588 0.0000
vn 0.9659 0.2588 0.0000
vn 0.7071 0.7071 0.0000
vn 0.2588 0.9659 0.0000
vn -0.2588 0.9659 0.0000
vn -0.7071 0.7071 0.0000
vn -0.9659 0.2588 0.0000
vn -0.5382 -0.6487 0.5382
vn -0.1970 -0.6487 0.7351
vn 0.1970 -0.6487 0.7351
vn 0.5382 -0.6487 0.5382
vn 0.7351 -0.6487 0.1970
vn 0.7351 -0.6487 -0.1970
vn 0.5382 -0.6487 -0.5382
vn 0.1970 -0.6487 -0.7351
vn -0.1970 -0.6487 -0.7351
vn -0.5382 -0.6487 -0.5382
vn -0.7351 -0.6487 -0.1970
vn -0.7351 -0.6487 0.1970
vn -0.5382 0.6487 0.5382
vn -0.1970 0.6487 0.7351
vn 0.1970 0.6487 0.7351
vn 0.5382 0.6487 0.5382
vn 0.7351 0.6487 0.1970
vn 0.7351 0.6487 -0.1970
vn 0.5382 0.6487 -0.5382
vn 0.1970 0.6487 -0.7351
vn -0.1970 0.6487 -0.7351
vn -0.5382 0.6487 -0.5382
vn -0.7351 0.6487 -0.1970
vn -0.7351 0.6487 0.1970
vn -0.9659 0.0000 -0.2588
vn -0.7071 0.0000 -0.7071
vn -0.2588 0.0000 -0.9659
vn 0.2588 0.0000 -0.9659
vn 0.7071 0.0000 -0.7071
vn 0.9659 0.0000 -0.2588
vn 0.9659 0.0000 0.2588
vn 0.7071 0.0000 0.7071
vn 0.2588 0.0000 0.9659
vn -0.2588 -0.0000 0.9659
vn -0.7071 0.0000 0.7071
vn -0.9659 0.0000 0.2588
s off
f 10/1/1 8/2/1 7/3/1
f 5/4/1 10/1/1 7/3/1
f 9/5/1 2/6/1 7/3/1
f 5/4/1 7/3/1 2/6/1
f 2/6/1 11/7/1 5/4/1
f 2/6/1 4/8/1 11/7/1
f 3/9/1 11/7/1 4/8/1
f 1/10/1 12/11/1 2/6/1
f 12/11/1 4/8/1 2/6/1
f 6/12/1 5/4/1 11/7/1
f 22/13/2 19/14/2 20/15/2
f 17/16/2 19/14/2 22/13/2
f 21/17/2 19/14/2 14/18/2
f 17/16/2 14/18/2 19/14/2
f 14/18/2 17/16/2 23/19/2
f 14/18/2 23/19/2 24/20/2
f 15/21/2 16/22/2 23/19/2
f 14/18/2 24/20/2 13/23/2
f 16/22/2 24/20/2 23/19/2
f 18/24/2 23/19/2 17/16/2
f 32/25/3 33/26/3 31/27/3
f 28/28/3 36/29/3 25/30/3
f 28/28/3 25/30/3 33/26/3
f 27/31/3 26/32/3 34/33/3
f 34/33/3 35/34/3 28/28/3
f 32/25/3 31/27/3 29/35/3
f 33/26/3 25/30/3 31/27/3
f 26/32/3 35/34/3 34/33/3
f 35/34/3 36/29/3 28/28/3
f 31/27/3 30/36/3 29/35/3
f 40/37/4 37/38/4 38/39/4
f 40/37/4 38/39/4 39/40/4
f 44/41/5 41/42/5 42/43/5
f 44/41/5 42/43/5 43/44/5
f 48/45/6 45/46/6 46/47/6
f 48/45/6 46/47/6 47/48/6
f 50/49/7 49/50/7 51/51/7
f 50/49/7 51/51/7 52/52/7
f 54/53/8 53/54/8 55/55/8
f 54/53/8 55/55/8 56/56/8
f 58/57/9 57/58/9 59/59/9
f 58/57/9 59/59/9 60/60/9
f 64/61/10 61/62/10 62/63/10
f 64/61/10 62/63/10 63/64/10
f 68/65/11 65/66/11 66/67/11
f 68/65/11 66/67/11 67/68/11
f 72/69/12 69/70/12 70/71/12
f 72/69/12 70/71/12 71/72/12
f 74/73/13 73/74/13 75/75/13
f 74/73/13 75/75/13 76/76/13
f 78/77/14 77/78/14 79/79/14
f 78/77/14 79/79/14 80/80/14
f 82/81/15 81/82/15 83/83/15
f 82/81/15 83/83/15 84/84/15
f 86/85/16 88/86/16 87/87/16
f 86/85/16 87/87/16 85/88/16
f 90/89/17 92/90/17 91/91/17
f 90/89/17 91/91/17 89/92/17
f 94/93/18 96/94/18 95/95/18
f 94/93/18 95/95/18 93/96/18
f 98/97/19 100/98/19 99/99/19
f 98/97/19 99/99/19 97/100/19
f 102/101/20 104/102/20 103/103/20
f 102/101/20 103/103/20 101/104/20
f 106/105/21 108/106/21 107/107/21
f 106/105/21 107/107/21 105/108/21
f 110/109/22 112/110/22 111/111/22
f 110/109/22 111/111/22 109/112/22
f 114/113/23 116/114/23 115/115/23
f 114/113/23 115/115/23 113/116/23
f 118/117/24 120/118/24 119/119/24
f 118/117/24 119/119/24 117/120/24
f 122/121/25 124/122/25 123/123/25
f 122/121/25 123/123/25 121/124/25
f 126/125/26 128/126/26 127/127/26
f 126/125/26 127/127/26 125/128/26
f 130/129/27 132/130/27 131/131/27
f 130/129/27 131/131/27 129/132/27
f 134/133/28 133/134/28 135/135/28
f 134/133/28 135/135/28 136/136/28
f 138/137/29 137/138/29 139/139/29
f 138/137/29 139/139/29 140/140/29
f 142/141/30 141/142/30 143/143/30
f 142/141/30 143/143/30 144/144/30
f 146/145/31 145/146/31 147/147/31
f 146/145/31 147/147/31 148/148/31
f 150/149/32 149/150/32 151/151/32
f 150/149/32 151/151/32 152/152/32
f 154/153/33 153/154/33 155/155/33
f 154/153/33 155/155/33 156/156/33
f 158/157/34 157/158/34 159/159/34
f 158/157/34 159/159/34 160/160/34
f 162/161/35 161/162/35 163/163/35
f 162/161/35 163/163/35 164/164/35
f 166/165/36 165/166/36 167/167/36
f 166/165/36 167/167/36 168/168/36
f 170/169/37 169/170/37 171/171/37
f 170/169/37 171/171/37 172/172/37
f 174/173/38 173/174/38 175/175/38
f 174/173/38 175/175/38 176/176/38
f 178/177/39 177/178/39 179/179/39
f 178/177/39 179/179/39 180/180/39
f 182/181/40 181/182/40 183/183/40
f 182/181/40 183/183/40 184/184/40
f 186/185/41 185/186/41 187/187/41
f 186/185/41 187/187/41 188/188/41
f 190/189/42 189/190/42 191/191/42
f 190/189/42 191/191/42 192/192/42
f 194/193/43 193/194/43 195/195/43
f 194/193/43 195/195/43 196/196/43
f 198/197/44 197/198/44 199/199/44
f 198/197/44 199/199/44 200/200/44
f 202/201/45 201/202/45 203/203/45
f 202/201/45 203/203/45 204/204/45
f 206/205/46 205/206/46 207/207/46
f 206/205/46 207/207/46 208/208/46
f 210/209/47 209/210/47 211/211/47
f 210/209/47 211/211/47 212/212/47
f 217/213/48 218/214/48 213/215/48
f 222/216/48 214/217/48 223/218/48
f 217/213/48 213/215/48 215/219/48
f 220/220/48 219/221/48 215/219/48
f 217/213/48 215/219/48 219/221/48
f 216/222/48 220/220/48 215/219/48
f 216/222/48 222/216/48 221/223/48
f 220/220/48 216/222/48 221/223/48
f 214/217/48 222/216/48 216/222/48
f 229/224/49 224/225/49 228/226/49
f 230/227/49 228/226/49 224/225/49
f 234/228/49 225/229/49 229/224/49
f 224/225/49 229/224/49 225/229/49
f 232/230/49 225/229/49 234/228/49
f 231/231/49 230/227/49 226/232/49
f 224/225/49 226/232/49 230/227/49
f 227/233/49 232/230/49 233/234/49
f 225/229/49 232/230/49 227/233/49
f 236/235/50 235/236/50 237/237/50
f 236/235/50 237/237/50 238/238/50
f 240/239/51 239/240/51 241/241/51
f 240/239/51 241/241/51 242/242/51
