# Blender v2.79 (sub 0) OBJ File: ''
# www.blender.org
o root_shape-6eeb4824f24c11e8bb4e9cb6d0f27d4d
v -0.008925 -0.010000 -0.027000
v -0.007720 -0.010000 -0.031500
v -0.008925 -0.010000 0.000000
v -0.007720 -0.010000 0.004500
v -0.004425 -0.010000 0.007794
v 0.000075 -0.010000 0.009000
v 0.004575 -0.010000 0.007794
v 0.007869 -0.010000 0.004500
v 0.009075 -0.010000 0.000000
v 0.009075 -0.010000 -0.027000
v 0.007869 -0.010000 -0.031500
v 0.004575 -0.010000 -0.034794
v 0.000075 -0.010000 -0.036000
v -0.004425 -0.010000 -0.034794
v -0.007720 -0.010000 -0.031500
v -0.007720 0.010000 -0.031500
v -0.008925 -0.010000 -0.027000
v -0.008925 0.010000 -0.027000
v -0.004425 -0.010000 -0.034794
v -0.004425 0.010000 -0.034794
v -0.007720 -0.010000 -0.031500
v -0.007720 0.010000 -0.031500
v 0.000075 -0.010000 -0.036000
v 0.000075 0.010000 -0.036000
v -0.004425 -0.010000 -0.034794
v -0.004425 0.010000 -0.034794
v 0.004575 -0.010000 -0.034794
v 0.004575 0.010000 -0.034794
v 0.000075 -0.010000 -0.036000
v 0.000075 0.010000 -0.036000
v 0.007869 -0.010000 -0.031500
v 0.007869 0.010000 -0.031500
v 0.004575 -0.010000 -0.034794
v 0.004575 0.010000 -0.034794
v 0.009075 -0.010000 -0.027000
v 0.009075 0.010000 -0.027000
v 0.007869 -0.010000 -0.031500
v 0.007869 0.010000 -0.031500
v 0.009075 -0.010000 0.000000
v 0.009075 0.010000 0.000000
v 0.009075 -0.010000 -0.027000
v 0.009075 0.010000 -0.027000
v 0.007869 -0.010000 0.004500
v 0.007869 0.010000 0.004500
v 0.009075 -0.010000 0.000000
v 0.009075 0.010000 0.000000
v 0.004575 -0.010000 0.007794
v 0.004575 0.010000 0.007794
v 0.007869 -0.010000 0.004500
v 0.007869 0.010000 0.004500
v 0.000075 -0.010000 0.009000
v 0.000075 0.010000 0.009000
v 0.004575 -0.010000 0.007794
v 0.004575 0.010000 0.007794
v -0.004425 -0.010000 0.007794
v -0.004425 0.010000 0.007794
v 0.000075 -0.010000 0.009000
v 0.000075 0.010000 0.009000
v -0.007720 -0.010000 0.004500
v -0.007720 0.010000 0.004500
v -0.004425 -0.010000 0.007794
v -0.004425 0.010000 0.007794
v -0.008925 -0.010000 0.000000
v -0.008925 0.010000 0.000000
v -0.007720 -0.010000 0.004500
v -0.007720 0.010000 0.004500
v -0.008925 -0.010000 -0.027000
v -0.008925 0.010000 -0.027000
v -0.008925 -0.010000 0.000000
v -0.008925 0.010000 0.000000
v -0.008925 0.010000 -0.027000
v -0.007720 0.010000 -0.031500
v -0.004425 0.010000 -0.034794
v 0.000075 0.010000 -0.036000
v 0.004575 0.010000 -0.034794
v 0.007869 0.010000 -0.031500
v 0.009075 0.010000 -0.027000
v 0.009075 0.010000 0.000000
v 0.007869 0.010000 0.004500
v 0.004575 0.010000 0.007794
v 0.000075 0.010000 0.009000
v -0.004425 0.010000 0.007794
v -0.007720 0.010000 0.004500
v -0.008925 0.010000 0.000000
vt 0.010000 0.026795
vt 0.010000 0.200000
vt 0.010000 0.100000
vt 0.010000 0.973205
vt 0.010000 0.000000
vt 0.010000 1.000000
vt 0.010000 0.800000
vt 0.010000 0.900000
vt 0.010000 0.200000
vt 0.010000 0.026795
vt 0.010000 0.100000
vt 0.010000 0.800000
vt 0.010000 0.973205
vt 0.010000 0.900000
vt 0.990000 0.100000
vt 0.010000 0.100000
vt 0.010000 0.200000
vt 0.990000 0.200000
vt 0.990000 0.026795
vt 0.010000 0.026795
vt 0.010000 0.100000
vt 0.990000 0.100000
vt 0.990000 0.000000
vt 0.010000 0.000000
vt 0.010000 0.026795
vt 0.990000 0.026795
vt 0.990000 0.026795
vt 0.010000 0.026795
vt 0.010000 0.000000
vt 0.990000 0.000000
vt 0.990000 0.100000
vt 0.010000 0.100000
vt 0.010000 0.026795
vt 0.990000 0.026795
vt 0.990000 0.200000
vt 0.010000 0.200000
vt 0.010000 0.100000
vt 0.990000 0.100000
vt 0.990000 0.800000
vt 0.010000 0.800000
vt 0.010000 0.200000
vt 0.990000 0.200000
vt 0.990000 0.900000
vt 0.010000 0.900000
vt 0.010000 0.800000
vt 0.990000 0.800000
vt 0.990000 0.973205
vt 0.010000 0.973205
vt 0.010000 0.900000
vt 0.990000 0.900000
vt 0.990000 1.000000
vt 0.010000 1.000000
vt 0.010000 0.973205
vt 0.990000 0.973205
vt 0.990000 0.973205
vt 0.010000 0.973205
vt 0.010000 1.000000
vt 0.990000 1.000000
vt 0.990000 0.900000
vt 0.010000 0.900000
vt 0.010000 0.973205
vt 0.990000 0.973205
vt 0.990000 0.800000
vt 0.010000 0.800000
vt 0.010000 0.900000
vt 0.990000 0.900000
vt 0.990000 0.200000
vt 0.010000 0.200000
vt 0.010000 0.800000
vt 0.990000 0.800000
vt 0.990000 0.026795
vt 0.990000 0.100000
vt 0.990000 0.200000
vt 0.990000 0.973205
vt 0.990000 1.000000
vt 0.990000 0.000000
vt 0.990000 0.800000
vt 0.990000 0.900000
vt 0.990000 0.200000
vt 0.990000 0.100000
vt 0.990000 0.026795
vt 0.990000 0.800000
vt 0.990000 0.973205
vt 0.990000 0.900000
vn 0.0000 -1.0000 -0.0000
vn -0.9659 0.0000 -0.2588
vn -0.7071 0.0000 -0.7071
vn -0.2588 0.0000 -0.9659
vn 0.2588 0.0000 -0.9659
vn 0.7071 0.0000 -0.7071
vn 0.9659 0.0000 -0.2588
vn 1.0000 0.0000 0.0000
vn 0.9659 0.0000 0.2588
vn 0.7071 0.0000 0.7071
vn 0.2588 0.0000 0.9659
vn -0.2588 0.0000 0.9659
vn -0.7071 0.0000 0.7071
vn -0.9659 0.0000 0.2588
vn -1.0000 0.0000 0.0000
vn 0.0000 1.0000 -0.0000
s off
f 14/1/1 1/2/1 2/3/1
f 5/4/1 14/1/1 13/5/1
f 5/4/1 13/5/1 6/6/1
f 5/4/1 3/7/1 1/2/1
f 3/7/1 5/4/1 4/8/1
f 5/4/1 1/2/1 14/1/1
f 10/9/1 12/10/1 11/11/1
f 9/12/1 12/10/1 10/9/1
f 12/10/1 7/13/1 6/6/1
f 12/10/1 6/6/1 13/5/1
f 7/13/1 9/12/1 8/14/1
f 7/13/1 12/10/1 9/12/1
f 16/15/2 15/16/2 17/17/2
f 16/15/2 17/17/2 18/18/2
f 20/19/3 19/20/3 21/21/3
f 20/19/3 21/21/3 22/22/3
f 24/23/4 23/24/4 25/25/4
f 24/23/4 25/25/4 26/26/4
f 28/27/5 27/28/5 29/29/5
f 28/27/5 29/29/5 30/30/5
f 32/31/6 31/32/6 33/33/6
f 32/31/6 33/33/6 34/34/6
f 36/35/7 35/36/7 37/37/7
f 36/35/7 37/37/7 38/38/7
f 40/39/8 39/40/8 41/41/8
f 40/39/8 41/41/8 42/42/8
f 44/43/9 43/44/9 45/45/9
f 44/43/9 45/45/9 46/46/9
f 48/47/10 47/48/10 49/49/10
f 48/47/10 49/49/10 50/50/10
f 52/51/11 51/52/11 53/53/11
f 52/51/11 53/53/11 54/54/11
f 56/55/12 55/56/12 57/57/12
f 56/55/12 57/57/12 58/58/12
f 60/59/13 59/60/13 61/61/13
f 60/59/13 61/61/13 62/62/13
f 64/63/14 63/64/14 65/65/14
f 64/63/14 65/65/14 66/66/14
f 68/67/15 67/68/15 69/69/15
f 68/67/15 69/69/15 70/70/15
f 73/71/16 72/72/16 71/73/16
f 82/74/16 81/75/16 74/76/16
f 82/74/16 74/76/16 73/71/16
f 82/74/16 71/73/16 84/77/16
f 84/77/16 83/78/16 82/74/16
f 82/74/16 73/71/16 71/73/16
f 77/79/16 76/80/16 75/81/16
f 78/82/16 77/79/16 75/81/16
f 75/81/16 74/76/16 81/75/16
f 75/81/16 81/75/16 80/83/16
f 80/83/16 79/84/16 78/82/16
f 80/83/16 78/82/16 75/81/16
