# Blender v2.79 (sub 0) OBJ File: ''
# www.blender.org
o root_shape-6eeb4823f24c11e8bb4e9cb6d0f27d4d
v -0.008925 -0.010000 -0.027000
v -0.007720 -0.010000 -0.031500
v -0.008925 -0.010000 0.000000
v -0.007720 -0.010000 0.004500
v -0.004425 -0.010000 0.007794
v 0.000075 -0.010000 0.009000
v 0.004575 -0.010000 0.007794
v 0.007869 -0.010000 0.004500
v 0.009075 -0.010000 0.000000
v 0.009075 -0.010000 -0.027000
v 0.007869 -0.010000 -0.031500
v 0.004575 -0.010000 -0.034794
v 0.000075 -0.010000 -0.036000
v -0.004425 -0.010000 -0.034794
v -0.007720 -0.010000 -0.031500
v -0.007720 0.010000 -0.031500
v -0.008925 -0.010000 -0.027000
v -0.008925 0.010000 -0.027000
v -0.004425 -0.010000 -0.034794
v -0.004425 0.010000 -0.034794
v -0.007720 -0.010000 -0.031500
v -0.007720 0.010000 -0.031500
v 0.000075 -0.010000 -0.036000
v 0.000075 0.010000 -0.036000
v -0.004425 -0.010000 -0.034794
v -0.004425 0.010000 -0.034794
v 0.004575 -0.010000 -0.034794
v 0.004575 0.010000 -0.034794
v 0.000075 -0.010000 -0.036000
v 0.000075 0.010000 -0.036000
v 0.007869 -0.010000 -0.031500
v 0.007869 0.010000 -0.031500
v 0.004575 -0.010000 -0.034794
v 0.004575 0.010000 -0.034794
v 0.009075 -0.010000 -0.027000
v 0.009075 0.010000 -0.027000
v 0.007869 -0.010000 -0.031500
v 0.007869 0.010000 -0.031500
v 0.009075 -0.010000 0.000000
v 0.009075 0.010000 0.000000
v 0.009075 -0.010000 -0.027000
v 0.009075 0.010000 -0.027000
v 0.007869 -0.010000 0.004500
v 0.007869 0.010000 0.004500
v 0.009075 -0.010000 0.000000
v 0.009075 0.010000 0.000000
v 0.004575 -0.010000 0.007794
v 0.004575 0.010000 0.007794
v 0.007869 -0.010000 0.004500
v 0.007869 0.010000 0.004500
v 0.000075 -0.010000 0.009000
v 0.000075 0.010000 0.009000
v 0.004575 -0.010000 0.007794
v 0.004575 0.010000 0.007794
v -0.004425 -0.010000 0.007794
v -0.004425 0.010000 0.007794
v 0.000075 -0.010000 0.009000
v 0.000075 0.010000 0.009000
v -0.007720 -0.010000 0.004500
v -0.007720 0.010000 0.004500
v -0.004425 -0.010000 0.007794
v -0.004425 0.010000 0.007794
v -0.008925 -0.010000 0.000000
v -0.008925 0.010000 0.000000
v -0.007720 -0.010000 0.004500
v -0.007720 0.010000 0.004500
v -0.008925 -0.010000 -0.027000
v -0.008925 0.010000 -0.027000
v -0.008925 -0.010000 0.000000
v -0.008925 0.010000 0.000000
v -0.008925 0.010000 -0.027000
v -0.007720 0.010000 -0.031500
v -0.004425 0.010000 -0.034794
v 0.000075 0.010000 -0.036000
v 0.004575 0.010000 -0.034794
v 0.007869 0.010000 -0.031500
v 0.009075 0.010000 -0.027000
v 0.009075 0.010000 0.000000
v 0.007869 0.010000 0.004500
v 0.004575 0.010000 0.007794
v 0.000075 0.010000 0.009000
v -0.004425 0.010000 0.007794
v -0.007720 0.010000 0.004500
v -0.008925 0.010000 0.000000
vn 0.0000 -1.0000 -0.0000
vn -0.9659 0.0000 -0.2588
vn -0.7071 0.0000 -0.7071
vn -0.2588 0.0000 -0.9659
vn 0.2588 0.0000 -0.9659
vn 0.7071 0.0000 -0.7071
vn 0.9659 0.0000 -0.2588
vn 1.0000 0.0000 0.0000
vn 0.9659 0.0000 0.2588
vn 0.7071 0.0000 0.7071
vn 0.2588 0.0000 0.9659
vn -0.2588 0.0000 0.9659
vn -0.7071 0.0000 0.7071
vn -0.9659 0.0000 0.2588
vn -1.0000 0.0000 0.0000
vn 0.0000 1.0000 -0.0000
s off
f 14//1 1//1 2//1
f 5//1 14//1 13//1
f 5//1 13//1 6//1
f 5//1 3//1 1//1
f 3//1 5//1 4//1
f 5//1 1//1 14//1
f 10//1 12//1 11//1
f 9//1 12//1 10//1
f 12//1 7//1 6//1
f 12//1 6//1 13//1
f 7//1 9//1 8//1
f 7//1 12//1 9//1
f 16//2 15//2 17//2
f 16//2 17//2 18//2
f 20//3 19//3 21//3
f 20//3 21//3 22//3
f 24//4 23//4 25//4
f 24//4 25//4 26//4
f 28//5 27//5 29//5
f 28//5 29//5 30//5
f 32//6 31//6 33//6
f 32//6 33//6 34//6
f 36//7 35//7 37//7
f 36//7 37//7 38//7
f 40//8 39//8 41//8
f 40//8 41//8 42//8
f 44//9 43//9 45//9
f 44//9 45//9 46//9
f 48//10 47//10 49//10
f 48//10 49//10 50//10
f 52//11 51//11 53//11
f 52//11 53//11 54//11
f 56//12 55//12 57//12
f 56//12 57//12 58//12
f 60//13 59//13 61//13
f 60//13 61//13 62//13
f 64//14 63//14 65//14
f 64//14 65//14 66//14
f 68//15 67//15 69//15
f 68//15 69//15 70//15
f 73//16 72//16 71//16
f 82//16 81//16 74//16
f 82//16 74//16 73//16
f 82//16 71//16 84//16
f 84//16 83//16 82//16
f 82//16 73//16 71//16
f 77//16 76//16 75//16
f 78//16 77//16 75//16
f 75//16 74//16 81//16
f 75//16 81//16 80//16
f 80//16 79//16 78//16
f 80//16 78//16 75//16
