# Blender v2.79 (sub 0) OBJ File: ''
# www.blender.org
o root_shape-6eeb4828f24c11e8bb4e9cb6d0f27d4d
v -0.008925 -0.010000 -0.027000
v -0.007720 -0.010000 -0.031500
v -0.008925 -0.010000 0.000000
v -0.007720 -0.010000 0.004500
v -0.004425 -0.010000 0.007794
v 0.000075 -0.010000 0.009000
v 0.004575 -0.010000 0.007794
v 0.007869 -0.010000 0.004500
v 0.009075 -0.010000 0.000000
v 0.009075 -0.010000 -0.027000
v 0.007869 -0.010000 -0.031500
v 0.004575 -0.010000 -0.034794
v 0.000075 -0.010000 -0.036000
v -0.004425 -0.010000 -0.034794
v -0.007720 -0.010000 -0.031500
v -0.008925 -0.010000 -0.027000
v -0.008925 0.006447 -0.027000
v -0.007720 0.003153 -0.031500
v -0.004425 -0.010000 -0.034794
v -0.007720 -0.010000 -0.031500
v -0.007720 0.003153 -0.031500
v -0.004425 0.000726 -0.034794
v 0.000075 -0.010000 -0.036000
v -0.004425 -0.010000 -0.034794
v -0.004425 0.000726 -0.034794
v 0.000075 -0.000183 -0.036000
v 0.004575 -0.010000 -0.034794
v 0.004575 0.000670 -0.034794
v 0.000075 -0.010000 -0.036000
v 0.000075 -0.000183 -0.036000
v 0.007869 -0.010000 -0.031500
v 0.007869 0.003055 -0.031500
v 0.004575 -0.010000 -0.034794
v 0.004575 0.000670 -0.034794
v 0.009075 -0.010000 -0.027000
v 0.009075 0.006334 -0.027000
v 0.007869 -0.010000 -0.031500
v 0.007869 0.003055 -0.031500
v 0.009075 -0.010000 0.000000
v 0.009075 0.010000 0.000000
v 0.009075 -0.010000 -0.027000
v 0.009075 0.007206 -0.025806
v 0.009075 0.010000 -0.012564
v 0.009075 0.006334 -0.027000
v 0.007869 -0.010000 0.004500
v 0.007869 0.010000 0.004500
v 0.009075 -0.010000 0.000000
v 0.009075 0.010000 0.000000
v 0.004575 -0.010000 0.007794
v 0.004575 0.010000 0.007794
v 0.007869 -0.010000 0.004500
v 0.007869 0.010000 0.004500
v 0.000075 -0.010000 0.009000
v 0.000075 0.010000 0.009000
v 0.004575 -0.010000 0.007794
v 0.004575 0.010000 0.007794
v -0.004425 -0.010000 0.007794
v -0.004425 0.010000 0.007794
v 0.000075 -0.010000 0.009000
v 0.000075 0.010000 0.009000
v -0.007720 -0.010000 0.004500
v -0.007720 0.010000 0.004500
v -0.004425 -0.010000 0.007794
v -0.004425 0.010000 0.007794
v -0.008925 -0.010000 0.000000
v -0.008925 0.010000 0.000000
v -0.007720 -0.010000 0.004500
v -0.007720 0.010000 0.004500
v -0.008925 -0.010000 -0.027000
v -0.008925 -0.010000 0.000000
v -0.008925 0.010000 0.000000
v -0.008925 0.006447 -0.027000
v -0.008925 0.010000 -0.013007
v -0.008925 0.007291 -0.025845
v 0.009075 0.010000 0.000000
v 0.007869 0.010000 0.004500
v 0.004575 0.010000 0.007794
v 0.000075 0.010000 0.009000
v -0.004425 0.010000 0.007794
v -0.007720 0.010000 0.004500
v -0.008925 0.010000 0.000000
v -0.008925 0.010000 -0.013007
v 0.009075 0.010000 -0.012564
v 0.009075 0.010000 -0.012564
v -0.008925 0.007291 -0.025845
v 0.009075 0.007206 -0.025806
v -0.008925 0.010000 -0.013007
v -0.008925 0.007291 -0.025845
v -0.008925 0.006447 -0.027000
v -0.007720 0.003153 -0.031500
v -0.004425 0.000726 -0.034794
v 0.000075 -0.000183 -0.036000
v 0.004575 0.000670 -0.034794
v 0.007869 0.003055 -0.031500
v 0.009075 0.006334 -0.027000
v 0.009075 0.007206 -0.025806
vt 0.990000 0.026795
vt 0.990000 0.200000
vt 0.990000 0.100000
vt 0.990000 0.973205
vt 0.990000 0.000000
vt 0.990000 1.000000
vt 0.990000 0.800000
vt 0.990000 0.900000
vt 0.990000 0.200000
vt 0.990000 0.026795
vt 0.990000 0.100000
vt 0.990000 0.800000
vt 0.990000 0.973205
vt 0.990000 0.900000
vt 0.342345 0.100000
vt 0.990000 0.100000
vt 0.990000 0.200000
vt 0.177636 0.200000
vt 0.463679 0.026795
vt 0.990000 0.026795
vt 0.990000 0.100000
vt 0.342345 0.100000
vt 0.509127 0.000000
vt 0.990000 0.000000
vt 0.990000 0.026795
vt 0.463679 0.026795
vt 0.466511 0.026795
vt 0.990000 0.026795
vt 0.990000 0.000000
vt 0.509127 0.000000
vt 0.347251 0.100000
vt 0.990000 0.100000
vt 0.990000 0.026795
vt 0.466511 0.026795
vt 0.183301 0.200000
vt 0.990000 0.200000
vt 0.990000 0.100000
vt 0.347251 0.100000
vt 0.010000 0.800000
vt 0.990000 0.800000
vt 0.010000 0.520800
vt 0.990000 0.200000
vt 0.183301 0.200000
vt 0.139719 0.226521
vt 0.010000 0.900000
vt 0.990000 0.900000
vt 0.990000 0.800000
vt 0.010000 0.800000
vt 0.010000 0.973205
vt 0.990000 0.973205
vt 0.990000 0.900000
vt 0.010000 0.900000
vt 0.010000 1.000000
vt 0.990000 1.000000
vt 0.990000 0.973205
vt 0.010000 0.973205
vt 0.010000 0.973205
vt 0.990000 0.973205
vt 0.990000 1.000000
vt 0.010000 1.000000
vt 0.010000 0.900000
vt 0.990000 0.900000
vt 0.990000 0.973205
vt 0.010000 0.973205
vt 0.010000 0.800000
vt 0.990000 0.800000
vt 0.990000 0.900000
vt 0.010000 0.900000
vt 0.177636 0.200000
vt 0.990000 0.200000
vt 0.135442 0.225677
vt 0.010000 0.510947
vt 0.010000 0.800000
vt 0.990000 0.800000
vt 0.010000 1.000000
vt 0.010000 0.800000
vt 0.010000 0.973205
vt 0.010000 0.900000
vt 0.010000 0.520800
vt 0.010000 0.510947
vt 0.010000 0.800000
vt 0.010000 0.973205
vt 0.010000 0.900000
vt 0.139719 0.226521
vt 0.010000 0.510947
vt 0.010000 0.520800
vt 0.135442 0.225677
vt 0.509127 0.000000
vt 0.135442 0.225677
vt 0.139719 0.226521
vt 0.183301 0.200000
vt 0.466511 0.026795
vt 0.177636 0.200000
vt 0.463679 0.026795
vt 0.347251 0.100000
vt 0.342345 0.100000
vn 0.0000 -1.0000 -0.0000
vn -0.9659 0.0000 -0.2588
vn -0.7071 0.0000 -0.7071
vn -0.2588 0.0000 -0.9659
vn 0.2588 0.0000 -0.9659
vn 0.7071 0.0000 -0.7071
vn 0.9659 0.0000 -0.2588
vn 1.0000 0.0000 0.0000
vn 0.9659 0.0000 0.2588
vn 0.7071 0.0000 0.7071
vn 0.2588 0.0000 0.9659
vn -0.2588 0.0000 0.9659
vn -0.7071 0.0000 0.7071
vn -0.9659 0.0000 0.2588
vn -1.0000 0.0000 0.0000
vn 0.0000 1.0000 -0.0000
vn 0.0051 0.9784 -0.2065
vn 0.0051 0.8075 -0.5898
s off
f 14/1/1 1/2/1 2/3/1
f 5/4/1 14/1/1 13/5/1
f 5/4/1 13/5/1 6/6/1
f 5/4/1 3/7/1 1/2/1
f 3/7/1 5/4/1 4/8/1
f 5/4/1 1/2/1 14/1/1
f 10/9/1 12/10/1 11/11/1
f 9/12/1 12/10/1 10/9/1
f 12/10/1 7/13/1 6/6/1
f 12/10/1 6/6/1 13/5/1
f 7/13/1 9/12/1 8/14/1
f 7/13/1 12/10/1 9/12/1
f 18/15/2 15/16/2 16/17/2
f 18/15/2 16/17/2 17/18/2
f 22/19/3 19/20/3 20/21/3
f 22/19/3 20/21/3 21/22/3
f 26/23/4 23/24/4 24/25/4
f 26/23/4 24/25/4 25/26/4
f 28/27/5 27/28/5 29/29/5
f 28/27/5 29/29/5 30/30/5
f 32/31/6 31/32/6 33/33/6
f 32/31/6 33/33/6 34/34/6
f 36/35/7 35/36/7 37/37/7
f 36/35/7 37/37/7 38/38/7
f 40/39/8 39/40/8 43/41/8
f 41/42/8 43/41/8 39/40/8
f 44/43/8 42/44/8 41/42/8
f 43/41/8 41/42/8 42/44/8
f 46/45/9 45/46/9 47/47/9
f 46/45/9 47/47/9 48/48/9
f 50/49/10 49/50/10 51/51/10
f 50/49/10 51/51/10 52/52/10
f 54/53/11 53/54/11 55/55/11
f 54/53/11 55/55/11 56/56/11
f 58/57/12 57/58/12 59/59/12
f 58/57/12 59/59/12 60/60/12
f 62/61/13 61/62/13 63/63/13
f 62/61/13 63/63/13 64/64/13
f 66/65/14 65/66/14 67/67/14
f 66/65/14 67/67/14 68/68/14
f 72/69/15 69/70/15 74/71/15
f 73/72/15 74/71/15 69/70/15
f 71/73/15 73/72/15 70/74/15
f 69/70/15 70/74/15 73/72/15
f 78/75/16 81/76/16 79/77/16
f 81/76/16 80/78/16 79/77/16
f 83/79/16 82/80/16 81/76/16
f 81/76/16 78/75/16 75/81/16
f 78/75/16 77/82/16 75/81/16
f 76/83/16 75/81/16 77/82/16
f 83/79/16 81/76/16 75/81/16
f 86/84/17 87/85/17 84/86/17
f 87/85/17 86/84/17 85/87/17
f 92/88/18 88/89/18 96/90/18
f 96/90/18 95/91/18 93/92/18
f 89/93/18 88/89/18 91/94/18
f 88/89/18 92/88/18 91/94/18
f 94/95/18 93/92/18 95/91/18
f 93/92/18 92/88/18 96/90/18
f 91/94/18 90/96/18 89/93/18
