# Blender v2.79 (sub 0) OBJ File: ''
# www.blender.org
o root_shape-6eeb4803f24c11e8bb4e9cb6d0f27d4d
v -0.016250 -0.059500 0.028146
v -0.028146 -0.059500 0.016250
v 0.028146 -0.059500 0.016250
v 0.016250 -0.059500 0.028146
v 0.016250 -0.059500 -0.028146
v 0.028146 -0.059500 -0.016250
v -0.028146 -0.059500 -0.016250
v -0.016250 -0.059500 -0.028146
v 0.032500 -0.059500 0.000000
v 0.000000 -0.059500 -0.032500
v -0.032500 -0.059500 0.000000
v 0.000000 -0.059500 0.032500
v -0.016250 0.059500 0.028146
v -0.028146 0.059500 0.016250
v 0.028146 0.059500 0.016250
v 0.016250 0.059500 0.028146
v 0.016250 0.059500 -0.028146
v 0.028146 0.059500 -0.016250
v -0.028146 0.059500 -0.016250
v -0.016250 0.059500 -0.028146
v 0.032500 0.059500 0.000000
v 0.000000 0.059500 -0.032500
v -0.032500 0.059500 0.000000
v 0.000000 0.059500 0.032500
v 0.012500 -0.021651 -0.100911
v 0.021651 -0.012500 -0.100911
v 0.021651 0.012500 -0.100911
v -0.012500 0.021651 -0.100911
v -0.021651 0.012500 -0.100911
v -0.021651 -0.012500 -0.100911
v -0.012500 -0.021651 -0.100911
v 0.000000 -0.025000 -0.100911
v -0.025000 0.000000 -0.100911
v 0.000000 0.025000 -0.100911
v 0.012500 0.021651 -0.100911
v 0.025000 0.000000 -0.100911
v -0.012500 -0.021651 -0.100911
v -0.012500 -0.021651 -0.054151
v 0.000000 -0.025000 -0.100911
v 0.000000 -0.025000 -0.057500
v -0.021651 -0.012500 -0.100911
v -0.021651 -0.012500 -0.051699
v -0.012500 -0.021651 -0.100911
v -0.012500 -0.021651 -0.054151
v -0.025000 0.000000 -0.100911
v -0.025000 0.000000 -0.050801
v -0.021651 -0.012500 -0.100911
v -0.021651 -0.012500 -0.051699
v -0.021651 0.012500 -0.100911
v -0.025000 0.000000 -0.100911
v -0.025000 0.000000 -0.050801
v -0.021651 0.012500 -0.051699
v -0.012500 0.021651 -0.100911
v -0.021651 0.012500 -0.100911
v -0.021651 0.012500 -0.051699
v -0.012500 0.021651 -0.054151
v 0.000000 0.025000 -0.100911
v -0.012500 0.021651 -0.100911
v -0.012500 0.021651 -0.054151
v 0.000000 0.025000 -0.057500
v 0.012500 0.021651 -0.100911
v 0.012500 0.021651 -0.054151
v 0.000000 0.025000 -0.100911
v 0.000000 0.025000 -0.057500
v 0.021651 0.012500 -0.100911
v 0.021651 0.012500 -0.051699
v 0.012500 0.021651 -0.100911
v 0.012500 0.021651 -0.054151
v 0.025000 0.000000 -0.100911
v 0.025000 0.000000 -0.050801
v 0.021651 0.012500 -0.100911
v 0.021651 0.012500 -0.051699
v 0.021651 -0.012500 -0.100911
v 0.025000 0.000000 -0.100911
v 0.025000 0.000000 -0.050801
v 0.021651 -0.012500 -0.051699
v 0.012500 -0.021651 -0.100911
v 0.021651 -0.012500 -0.100911
v 0.021651 -0.012500 -0.051699
v 0.012500 -0.021651 -0.054151
v 0.000000 -0.025000 -0.100911
v 0.012500 -0.021651 -0.100911
v 0.012500 -0.021651 -0.054151
v 0.000000 -0.025000 -0.057500
v -0.028750 -0.037500 0.049796
v -0.028750 0.037500 0.049796
v 0.000000 -0.037500 0.057500
v 0.000000 0.037500 0.057500
v -0.049796 -0.037500 0.028750
v -0.049796 0.037500 0.028750
v -0.028750 -0.037500 0.049796
v -0.028750 0.037500 0.049796
v -0.057500 -0.037500 0.000000
v -0.057500 0.037500 0.000000
v -0.049796 -0.037500 0.028750
v -0.049796 0.037500 0.028750
v -0.049796 -0.037500 -0.028750
v -0.049796 0.037500 -0.028750
v -0.057500 -0.037500 0.000000
v -0.057500 0.037500 0.000000
v -0.028750 -0.037500 -0.049796
v -0.028750 0.037500 -0.049796
v -0.049796 -0.037500 -0.028750
v -0.049796 0.037500 -0.028750
v 0.000000 -0.037500 -0.057500
v 0.000000 0.037500 -0.057500
v -0.028750 -0.037500 -0.049796
v -0.028750 0.037500 -0.049796
v -0.012500 -0.021651 -0.054151
v 0.000000 -0.025000 -0.057500
v -0.021651 -0.012500 -0.051699
v -0.025000 0.000000 -0.050801
v -0.021651 0.012500 -0.051699
v -0.012500 0.021651 -0.054151
v 0.000000 0.025000 -0.057500
v 0.028750 -0.037500 -0.049796
v 0.028750 0.037500 -0.049796
v 0.000000 -0.037500 -0.057500
v 0.000000 0.037500 -0.057500
v 0.012500 0.021651 -0.054151
v 0.000000 0.025000 -0.057500
v 0.021651 0.012500 -0.051699
v 0.025000 0.000000 -0.050801
v 0.021651 -0.012500 -0.051699
v 0.012500 -0.021651 -0.054151
v 0.000000 -0.025000 -0.057500
v 0.049796 -0.037500 -0.028750
v 0.049796 0.037500 -0.028750
v 0.028750 -0.037500 -0.049796
v 0.028750 0.037500 -0.049796
v 0.057500 -0.037500 0.000000
v 0.057500 0.037500 0.000000
v 0.049796 -0.037500 -0.028750
v 0.049796 0.037500 -0.028750
v 0.049796 -0.037500 0.028750
v 0.049796 0.037500 0.028750
v 0.057500 -0.037500 0.000000
v 0.057500 0.037500 0.000000
v 0.028750 -0.037500 0.049796
v 0.028750 0.037500 0.049796
v 0.049796 -0.037500 0.028750
v 0.049796 0.037500 0.028750
v 0.000000 -0.037500 0.057500
v 0.000000 0.037500 0.057500
v 0.028750 -0.037500 0.049796
v 0.028750 0.037500 0.049796
v 0.049796 -0.037500 0.028750
v 0.028750 -0.037500 0.049796
v 0.028146 -0.059500 0.016250
v 0.016250 -0.059500 0.028146
v 0.057500 -0.037500 0.000000
v 0.049796 -0.037500 0.028750
v 0.032500 -0.059500 0.000000
v 0.028146 -0.059500 0.016250
v 0.049796 -0.037500 -0.028750
v 0.057500 -0.037500 0.000000
v 0.028146 -0.059500 -0.016250
v 0.032500 -0.059500 0.000000
v 0.028750 -0.037500 -0.049796
v 0.049796 -0.037500 -0.028750
v 0.016250 -0.059500 -0.028146
v 0.028146 -0.059500 -0.016250
v 0.000000 -0.037500 -0.057500
v 0.028750 -0.037500 -0.049796
v 0.000000 -0.059500 -0.032500
v 0.016250 -0.059500 -0.028146
v -0.028750 -0.037500 -0.049796
v 0.000000 -0.037500 -0.057500
v -0.016250 -0.059500 -0.028146
v 0.000000 -0.059500 -0.032500
v -0.049796 -0.037500 -0.028750
v -0.028750 -0.037500 -0.049796
v -0.028146 -0.059500 -0.016250
v -0.016250 -0.059500 -0.028146
v -0.057500 -0.037500 0.000000
v -0.049796 -0.037500 -0.028750
v -0.032500 -0.059500 0.000000
v -0.028146 -0.059500 -0.016250
v -0.049796 -0.037500 0.028750
v -0.057500 -0.037500 0.000000
v -0.028146 -0.059500 0.016250
v -0.032500 -0.059500 0.000000
v -0.028750 -0.037500 0.049796
v -0.049796 -0.037500 0.028750
v -0.016250 -0.059500 0.028146
v -0.028146 -0.059500 0.016250
v 0.000000 -0.037500 0.057500
v -0.028750 -0.037500 0.049796
v 0.000000 -0.059500 0.032500
v -0.016250 -0.059500 0.028146
v 0.028750 -0.037500 0.049796
v 0.000000 -0.037500 0.057500
v 0.016250 -0.059500 0.028146
v 0.000000 -0.059500 0.032500
v 0.049796 0.037500 0.028750
v 0.028750 0.037500 0.049796
v 0.028146 0.059500 0.016250
v 0.016250 0.059500 0.028146
v 0.057500 0.037500 0.000000
v 0.049796 0.037500 0.028750
v 0.032500 0.059500 0.000000
v 0.028146 0.059500 0.016250
v 0.049796 0.037500 -0.028750
v 0.057500 0.037500 0.000000
v 0.028146 0.059500 -0.016250
v 0.032500 0.059500 0.000000
v 0.028750 0.037500 -0.049796
v 0.049796 0.037500 -0.028750
v 0.016250 0.059500 -0.028146
v 0.028146 0.059500 -0.016250
v 0.000000 0.037500 -0.057500
v 0.028750 0.037500 -0.049796
v 0.000000 0.059500 -0.032500
v 0.016250 0.059500 -0.028146
v -0.028750 0.037500 -0.049796
v 0.000000 0.037500 -0.057500
v -0.016250 0.059500 -0.028146
v 0.000000 0.059500 -0.032500
v -0.049796 0.037500 -0.028750
v -0.028750 0.037500 -0.049796
v -0.028146 0.059500 -0.016250
v -0.016250 0.059500 -0.028146
v -0.057500 0.037500 0.000000
v -0.049796 0.037500 -0.028750
v -0.032500 0.059500 0.000000
v -0.028146 0.059500 -0.016250
v -0.049796 0.037500 0.028750
v -0.057500 0.037500 0.000000
v -0.028146 0.059500 0.016250
v -0.032500 0.059500 0.000000
v -0.028750 0.037500 0.049796
v -0.049796 0.037500 0.028750
v -0.016250 0.059500 0.028146
v -0.028146 0.059500 0.016250
v 0.000000 0.037500 0.057500
v -0.028750 0.037500 0.049796
v 0.000000 0.059500 0.032500
v -0.016250 0.059500 0.028146
v 0.028750 0.037500 0.049796
v 0.000000 0.037500 0.057500
v 0.016250 0.059500 0.028146
v 0.000000 0.059500 0.032500
vt 0.358696 0.814696
vt 0.641304 0.814696
vt 0.500000 0.842183
vt 0.744746 0.739601
vt 0.782609 0.637020
vt 0.744746 0.534439
vt 0.641304 0.459344
vt 0.217391 0.637020
vt 0.358696 0.459344
vt 0.255254 0.534439
vt 0.500000 0.431858
vt 0.255254 0.739601
vt 0.358696 0.814696
vt 0.500000 0.842183
vt 0.641304 0.814696
vt 0.217391 0.637020
vt 0.782609 0.637020
vt 0.744746 0.739601
vt 0.500000 0.431858
vt 0.744746 0.534439
vt 0.358696 0.459344
vt 0.255254 0.534439
vt 0.641304 0.459344
vt 0.255254 0.739601
vt 0.500000 0.000000
vt 0.391304 0.000000
vt 0.282609 0.000000
vt 0.717391 0.000000
vt 0.311734 0.000000
vt 0.391304 0.000000
vt 0.311734 0.000000
vt 0.608696 0.000000
vt 0.500000 0.000000
vt 0.688267 0.000000
vt 0.608696 0.000000
vt 0.688267 0.000000
vt 0.391304 0.295184
vt 0.391304 0.000000
vt 0.500000 0.000000
vt 0.500000 0.274040
vt 0.311734 0.310662
vt 0.311734 0.000000
vt 0.391304 0.000000
vt 0.391304 0.295184
vt 0.282609 0.316328
vt 0.282609 0.000000
vt 0.311734 0.000000
vt 0.311734 0.310662
vt 0.311734 0.310662
vt 0.311734 0.000000
vt 0.282609 0.000000
vt 0.282609 0.316328
vt 0.391304 0.295184
vt 0.391304 0.000000
vt 0.311734 0.000000
vt 0.311734 0.310662
vt 0.500000 0.274040
vt 0.500000 0.000000
vt 0.391304 0.000000
vt 0.391304 0.295184
vt 0.608696 0.295184
vt 0.608696 0.000000
vt 0.500000 0.000000
vt 0.500000 0.274040
vt 0.688267 0.310662
vt 0.688267 0.000000
vt 0.608696 0.000000
vt 0.608696 0.295184
vt 0.717391 0.316328
vt 0.717391 0.000000
vt 0.688267 0.000000
vt 0.688267 0.310662
vt 0.688267 0.310662
vt 0.688267 0.000000
vt 0.717391 0.000000
vt 0.717391 0.316328
vt 0.608696 0.295184
vt 0.608696 0.000000
vt 0.688267 0.000000
vt 0.688267 0.310662
vt 0.500000 0.274040
vt 0.500000 0.000000
vt 0.608696 0.000000
vt 0.608696 0.295184
vt 0.250000 0.951370
vt 0.250000 0.951370
vt 0.500000 1.000000
vt 0.500000 1.000000
vt 0.066987 0.818510
vt 0.066987 0.818510
vt 0.250000 0.951370
vt 0.250000 0.951370
vt 0.000000 0.637020
vt 0.000000 0.637020
vt 0.066987 0.818510
vt 0.066987 0.818510
vt 0.066987 0.455530
vt 0.066987 0.455530
vt 0.000000 0.637020
vt 0.000000 0.637020
vt 0.250000 0.322671
vt 0.250000 0.322671
vt 0.066987 0.455530
vt 0.066987 0.455530
vt 0.391304 0.295184
vt 0.500000 0.274040
vt 0.500000 0.274040
vt 0.391304 0.295184
vt 0.500000 0.274040
vt 0.500000 0.274040
vt 0.250000 0.322671
vt 0.282609 0.316328
vt 0.311734 0.310662
vt 0.250000 0.322671
vt 0.311734 0.310662
vt 0.717391 0.316328
vt 0.750000 0.322671
vt 0.688267 0.310662
vt 0.608696 0.295184
vt 0.688267 0.310662
vt 0.750000 0.322671
vt 0.608696 0.295184
vt 0.500000 0.274040
vt 0.500000 0.274040
vt 0.500000 0.274040
vt 0.500000 0.274040
vt 0.933013 0.455530
vt 0.933013 0.455530
vt 0.750000 0.322671
vt 0.750000 0.322671
vt 1.000000 0.637020
vt 1.000000 0.637020
vt 0.933013 0.455530
vt 0.933013 0.455530
vt 0.933013 0.818510
vt 0.933013 0.818510
vt 1.000000 0.637020
vt 1.000000 0.637020
vt 0.750000 0.951370
vt 0.750000 0.951370
vt 0.933013 0.818510
vt 0.933013 0.818510
vt 0.500000 1.000000
vt 0.500000 1.000000
vt 0.750000 0.951370
vt 0.750000 0.951370
vt 0.750000 0.951370
vt 0.641304 0.814696
vt 0.744746 0.739601
vt 0.933013 0.818510
vt 0.933013 0.818510
vt 0.744746 0.739601
vt 0.782609 0.637020
vt 1.000000 0.637020
vt 1.000000 0.637020
vt 0.782609 0.637020
vt 0.744746 0.534439
vt 0.933013 0.455530
vt 0.933013 0.455530
vt 0.744746 0.534439
vt 0.641304 0.459344
vt 0.750000 0.322671
vt 0.750000 0.322671
vt 0.641304 0.459344
vt 0.500000 0.431858
vt 0.500000 0.274040
vt 0.500000 0.274040
vt 0.500000 0.431858
vt 0.358696 0.459344
vt 0.250000 0.322671
vt 0.250000 0.322671
vt 0.358696 0.459344
vt 0.255254 0.534439
vt 0.066987 0.455530
vt 0.066987 0.455530
vt 0.255254 0.534439
vt 0.217391 0.637020
vt 0.000000 0.637020
vt 0.000000 0.637020
vt 0.217391 0.637020
vt 0.255254 0.739601
vt 0.066987 0.818510
vt 0.066987 0.818510
vt 0.255254 0.739601
vt 0.358696 0.814696
vt 0.250000 0.951370
vt 0.250000 0.951370
vt 0.358696 0.814696
vt 0.500000 0.842183
vt 0.500000 1.000000
vt 0.500000 1.000000
vt 0.500000 0.842183
vt 0.641304 0.814696
vt 0.750000 0.951370
vt 0.750000 0.951370
vt 0.933013 0.818510
vt 0.744746 0.739601
vt 0.641304 0.814696
vt 0.933013 0.818510
vt 1.000000 0.637020
vt 0.782609 0.637020
vt 0.744746 0.739601
vt 1.000000 0.637020
vt 0.933013 0.455530
vt 0.744746 0.534439
vt 0.782609 0.637020
vt 0.933013 0.455530
vt 0.750000 0.322671
vt 0.641304 0.459344
vt 0.744746 0.534439
vt 0.750000 0.322671
vt 0.500000 0.274040
vt 0.500000 0.431858
vt 0.641304 0.459344
vt 0.500000 0.274040
vt 0.250000 0.322671
vt 0.358696 0.459344
vt 0.500000 0.431858
vt 0.250000 0.322671
vt 0.066987 0.455530
vt 0.255254 0.534439
vt 0.358696 0.459344
vt 0.066987 0.455530
vt 0.000000 0.637020
vt 0.217391 0.637020
vt 0.255254 0.534439
vt 0.000000 0.637020
vt 0.066987 0.818510
vt 0.255254 0.739601
vt 0.217391 0.637020
vt 0.066987 0.818510
vt 0.250000 0.951370
vt 0.358696 0.814696
vt 0.255254 0.739601
vt 0.250000 0.951370
vt 0.500000 1.000000
vt 0.500000 0.842183
vt 0.358696 0.814696
vt 0.500000 1.000000
vt 0.750000 0.951370
vt 0.641304 0.814696
vt 0.500000 0.842183
vn 0.0000 -1.0000 0.0000
vn 0.0000 1.0000 0.0000
vn 0.0000 0.0000 -1.0000
vn -0.2588 -0.9659 0.0000
vn -0.7071 -0.7071 0.0000
vn -0.9659 -0.2588 0.0000
vn -0.9659 0.2588 0.0000
vn -0.7071 0.7071 0.0000
vn -0.2588 0.9659 0.0000
vn 0.2588 0.9659 0.0000
vn 0.7071 0.7071 0.0000
vn 0.9659 0.2588 0.0000
vn 0.9659 -0.2588 0.0000
vn 0.7071 -0.7071 0.0000
vn 0.2588 -0.9659 0.0000
vn -0.2588 0.0000 0.9659
vn -0.7071 0.0000 0.7071
vn -0.9659 0.0000 0.2588
vn -0.9659 0.0000 -0.2588
vn -0.7071 0.0000 -0.7071
vn -0.2588 0.0000 -0.9659
vn 0.2588 0.0000 -0.9659
vn 0.7071 0.0000 -0.7071
vn 0.9659 0.0000 -0.2588
vn 0.9659 0.0000 0.2588
vn 0.7071 0.0000 0.7071
vn 0.2588 0.0000 0.9659
vn 0.4762 -0.7392 0.4762
vn 0.6505 -0.7392 0.1743
vn 0.6505 -0.7392 -0.1743
vn 0.4762 -0.7392 -0.4762
vn 0.1743 -0.7392 -0.6505
vn -0.1743 -0.7392 -0.6505
vn -0.4762 -0.7392 -0.4762
vn -0.6505 -0.7392 -0.1743
vn -0.6505 -0.7392 0.1743
vn -0.4762 -0.7392 0.4762
vn -0.1743 -0.7392 0.6505
vn 0.1743 -0.7392 0.6505
vn 0.4762 0.7392 0.4762
vn 0.6505 0.7392 0.1743
vn 0.6505 0.7392 -0.1743
vn 0.4762 0.7392 -0.4762
vn 0.1743 0.7392 -0.6505
vn -0.1743 0.7392 -0.6505
vn -0.4762 0.7392 -0.4762
vn -0.6505 0.7392 -0.1743
vn -0.6505 0.7392 0.1743
vn -0.4762 0.7392 0.4762
vn -0.1743 0.7392 0.6505
vn 0.1743 0.7392 0.6505
s off
f 1/1/1 4/2/1 12/3/1
f 3/4/1 4/2/1 1/1/1
f 9/5/1 3/4/1 6/6/1
f 3/4/1 5/7/1 6/6/1
f 5/7/1 3/4/1 1/1/1
f 1/1/1 11/8/1 8/9/1
f 7/10/1 8/9/1 11/8/1
f 10/11/1 5/7/1 8/9/1
f 8/9/1 5/7/1 1/1/1
f 2/12/1 11/8/1 1/1/1
f 13/13/2 24/14/2 16/15/2
f 23/16/2 16/15/2 21/17/2
f 15/18/2 21/17/2 16/15/2
f 22/19/2 21/17/2 18/20/2
f 13/13/2 16/15/2 23/16/2
f 23/16/2 21/17/2 20/21/2
f 19/22/2 23/16/2 20/21/2
f 18/20/2 17/23/2 22/19/2
f 22/19/2 20/21/2 21/17/2
f 14/24/2 13/13/2 23/16/2
f 32/25/3 31/26/3 33/27/3
f 32/25/3 33/27/3 36/28/3
f 30/29/3 33/27/3 31/26/3
f 28/30/3 33/27/3 29/31/3
f 25/32/3 32/25/3 36/28/3
f 33/27/3 34/33/3 36/28/3
f 27/34/3 36/28/3 34/33/3
f 33/27/3 28/30/3 34/33/3
f 35/35/3 27/34/3 34/33/3
f 26/36/3 25/32/3 36/28/3
f 38/37/4 37/38/4 39/39/4
f 38/37/4 39/39/4 40/40/4
f 42/41/5 41/42/5 43/43/5
f 42/41/5 43/43/5 44/44/5
f 46/45/6 45/46/6 47/47/6
f 46/45/6 47/47/6 48/48/6
f 52/49/7 49/50/7 50/51/7
f 52/49/7 50/51/7 51/52/7
f 56/53/8 53/54/8 54/55/8
f 56/53/8 54/55/8 55/56/8
f 60/57/9 57/58/9 58/59/9
f 60/57/9 58/59/9 59/60/9
f 62/61/10 61/62/10 63/63/10
f 62/61/10 63/63/10 64/64/10
f 66/65/11 65/66/11 67/67/11
f 66/65/11 67/67/11 68/68/11
f 70/69/12 69/70/12 71/71/12
f 70/69/12 71/71/12 72/72/12
f 76/73/13 73/74/13 74/75/13
f 76/73/13 74/75/13 75/76/13
f 80/77/14 77/78/14 78/79/14
f 80/77/14 78/79/14 79/80/14
f 84/81/15 81/82/15 82/83/15
f 84/81/15 82/83/15 83/84/15
f 86/85/16 85/86/16 87/87/16
f 86/85/16 87/87/16 88/88/16
f 90/89/17 89/90/17 91/91/17
f 90/89/17 91/91/17 92/92/17
f 94/93/18 93/94/18 95/95/18
f 94/93/18 95/95/18 96/96/18
f 98/97/19 97/98/19 99/99/19
f 98/97/19 99/99/19 100/100/19
f 102/101/20 101/102/20 103/103/20
f 102/101/20 103/103/20 104/104/20
f 109/105/21 110/106/21 105/107/21
f 114/108/21 106/109/21 115/110/21
f 109/105/21 105/107/21 107/111/21
f 112/112/21 111/113/21 107/111/21
f 109/105/21 107/111/21 111/113/21
f 108/114/21 112/112/21 107/111/21
f 108/114/21 114/108/21 113/115/21
f 112/112/21 108/114/21 113/115/21
f 106/109/21 114/108/21 108/114/21
f 123/116/22 116/117/22 124/118/22
f 125/119/22 124/118/22 116/117/22
f 122/120/22 117/121/22 123/116/22
f 116/117/22 123/116/22 117/121/22
f 120/122/22 117/121/22 122/120/22
f 126/123/22 125/119/22 118/124/22
f 116/117/22 118/124/22 125/119/22
f 119/125/22 120/122/22 121/126/22
f 117/121/22 120/122/22 119/125/22
f 128/127/23 127/128/23 129/129/23
f 128/127/23 129/129/23 130/130/23
f 132/131/24 131/132/24 133/133/24
f 132/131/24 133/133/24 134/134/24
f 136/135/25 135/136/25 137/137/25
f 136/135/25 137/137/25 138/138/25
f 140/139/26 139/140/26 141/141/26
f 140/139/26 141/141/26 142/142/26
f 144/143/27 143/144/27 145/145/27
f 144/143/27 145/145/27 146/146/27
f 148/147/28 150/148/28 149/149/28
f 148/147/28 149/149/28 147/150/28
f 152/151/29 154/152/29 153/153/29
f 152/151/29 153/153/29 151/154/29
f 156/155/30 158/156/30 157/157/30
f 156/155/30 157/157/30 155/158/30
f 160/159/31 162/160/31 161/161/31
f 160/159/31 161/161/31 159/162/31
f 164/163/32 166/164/32 165/165/32
f 164/163/32 165/165/32 163/166/32
f 168/167/33 170/168/33 169/169/33
f 168/167/33 169/169/33 167/170/33
f 172/171/34 174/172/34 173/173/34
f 172/171/34 173/173/34 171/174/34
f 176/175/35 178/176/35 177/177/35
f 176/175/35 177/177/35 175/178/35
f 180/179/36 182/180/36 181/181/36
f 180/179/36 181/181/36 179/182/36
f 184/183/37 186/184/37 185/185/37
f 184/183/37 185/185/37 183/186/37
f 188/187/38 190/188/38 189/189/38
f 188/187/38 189/189/38 187/190/38
f 192/191/39 194/192/39 193/193/39
f 192/191/39 193/193/39 191/194/39
f 196/195/40 195/196/40 197/197/40
f 196/195/40 197/197/40 198/198/40
f 200/199/41 199/200/41 201/201/41
f 200/199/41 201/201/41 202/202/41
f 204/203/42 203/204/42 205/205/42
f 204/203/42 205/205/42 206/206/42
f 208/207/43 207/208/43 209/209/43
f 208/207/43 209/209/43 210/210/43
f 212/211/44 211/212/44 213/213/44
f 212/211/44 213/213/44 214/214/44
f 216/215/45 215/216/45 217/217/45
f 216/215/45 217/217/45 218/218/45
f 220/219/46 219/220/46 221/221/46
f 220/219/46 221/221/46 222/222/46
f 224/223/47 223/224/47 225/225/47
f 224/223/47 225/225/47 226/226/47
f 228/227/48 227/228/48 229/229/48
f 228/227/48 229/229/48 230/230/48
f 232/231/49 231/232/49 233/233/49
f 232/231/49 233/233/49 234/234/49
f 236/235/50 235/236/50 237/237/50
f 236/235/50 237/237/50 238/238/50
f 240/239/51 239/240/51 241/241/51
f 240/239/51 241/241/51 242/242/51
