# Blender v2.79 (sub 0) OBJ File: ''
# www.blender.org
o root_shape-6eeb4813f24c11e8bb4e9cb6d0f27d4d
v 0.028146 -0.059500 0.016250
v 0.016250 -0.059500 0.028146
v 0.016250 -0.059500 -0.028146
v 0.028146 -0.059500 -0.016250
v -0.028146 -0.059500 -0.016250
v -0.016250 -0.059500 -0.028146
v -0.016250 -0.059500 0.028146
v -0.028146 -0.059500 0.016250
v 0.000000 -0.059500 0.032500
v 0.032500 -0.059500 0.000000
v 0.000000 -0.059500 -0.032500
v -0.032500 -0.059500 0.000000
v -0.016250 0.059500 0.028146
v -0.028146 0.059500 0.016250
v 0.028146 0.059500 0.016250
v 0.016250 0.059500 0.028146
v 0.016250 0.059500 -0.028146
v 0.028146 0.059500 -0.016250
v -0.028146 0.059500 -0.016250
v -0.016250 0.059500 -0.028146
v 0.000000 0.059500 0.032500
v 0.032500 0.059500 0.000000
v 0.000000 0.059500 -0.032500
v -0.032500 0.059500 0.000000
v 0.100911 -0.021651 0.012500
v 0.100911 -0.012500 0.021651
v 0.100911 0.012500 0.021651
v 0.100911 0.021651 -0.012500
v 0.100911 0.012500 -0.021651
v 0.100911 -0.012500 -0.021651
v 0.100911 -0.021651 -0.012500
v 0.100911 -0.025000 0.000000
v 0.100911 0.000000 -0.025000
v 0.100911 0.025000 0.000000
v 0.100911 0.021651 0.012500
v 0.100911 0.000000 0.025000
v 0.100911 -0.021651 -0.012500
v 0.054151 -0.021651 -0.012500
v 0.100911 -0.025000 0.000000
v 0.057500 -0.025000 0.000000
v 0.100911 -0.012500 -0.021651
v 0.051699 -0.012500 -0.021651
v 0.100911 -0.021651 -0.012500
v 0.054151 -0.021651 -0.012500
v 0.100911 0.000000 -0.025000
v 0.050801 0.000000 -0.025000
v 0.100911 -0.012500 -0.021651
v 0.051699 -0.012500 -0.021651
v 0.100911 0.012500 -0.021651
v 0.100911 0.000000 -0.025000
v 0.050801 0.000000 -0.025000
v 0.051699 0.012500 -0.021651
v 0.100911 0.021651 -0.012500
v 0.100911 0.012500 -0.021651
v 0.051699 0.012500 -0.021651
v 0.054151 0.021651 -0.012500
v 0.100911 0.025000 0.000000
v 0.100911 0.021651 -0.012500
v 0.054151 0.021651 -0.012500
v 0.057500 0.025000 0.000000
v 0.100911 0.021651 0.012500
v 0.054151 0.021651 0.012500
v 0.100911 0.025000 0.000000
v 0.057500 0.025000 0.000000
v 0.100911 0.012500 0.021651
v 0.051699 0.012500 0.021651
v 0.100911 0.021651 0.012500
v 0.054151 0.021651 0.012500
v 0.100911 0.000000 0.025000
v 0.050801 0.000000 0.025000
v 0.100911 0.012500 0.021651
v 0.051699 0.012500 0.021651
v 0.100911 -0.012500 0.021651
v 0.100911 0.000000 0.025000
v 0.050801 0.000000 0.025000
v 0.051699 -0.012500 0.021651
v 0.100911 -0.021651 0.012500
v 0.100911 -0.012500 0.021651
v 0.051699 -0.012500 0.021651
v 0.054151 -0.021651 0.012500
v 0.100911 -0.025000 0.000000
v 0.100911 -0.021651 0.012500
v 0.054151 -0.021651 0.012500
v 0.057500 -0.025000 0.000000
v -0.049796 -0.037500 -0.028750
v -0.049796 0.037500 -0.028750
v -0.057500 -0.037500 0.000000
v -0.057500 0.037500 0.000000
v -0.028750 -0.037500 -0.049796
v -0.028750 0.037500 -0.049796
v -0.049796 -0.037500 -0.028750
v -0.049796 0.037500 -0.028750
v 0.000000 -0.037500 -0.057500
v 0.000000 0.037500 -0.057500
v -0.028750 -0.037500 -0.049796
v -0.028750 0.037500 -0.049796
v 0.028750 -0.037500 -0.049796
v 0.028750 0.037500 -0.049796
v 0.000000 -0.037500 -0.057500
v 0.000000 0.037500 -0.057500
v 0.057500 -0.037500 0.000000
v 0.057500 0.037500 0.000000
v 0.049796 -0.037500 -0.028750
v 0.049796 0.037500 -0.028750
v 0.054151 -0.021651 -0.012500
v 0.057500 -0.025000 0.000000
v 0.051699 -0.012500 -0.021651
v 0.050801 0.000000 -0.025000
v 0.051699 0.012500 -0.021651
v 0.054151 0.021651 -0.012500
v 0.057500 0.025000 0.000000
v 0.049796 -0.037500 0.028750
v 0.049796 0.037500 0.028750
v 0.057500 -0.037500 0.000000
v 0.057500 0.037500 0.000000
v 0.054151 0.021651 0.012500
v 0.057500 0.025000 0.000000
v 0.051699 0.012500 0.021651
v 0.050801 0.000000 0.025000
v 0.051699 -0.012500 0.021651
v 0.054151 -0.021651 0.012500
v 0.057500 -0.025000 0.000000
v 0.028750 -0.037500 0.049796
v 0.028750 0.037500 0.049796
v 0.049796 -0.037500 0.028750
v 0.049796 0.037500 0.028750
v 0.000000 -0.037500 0.057500
v 0.000000 0.037500 0.057500
v 0.028750 -0.037500 0.049796
v 0.028750 0.037500 0.049796
v -0.028750 -0.037500 0.049796
v -0.028750 0.037500 0.049796
v 0.000000 -0.037500 0.057500
v 0.000000 0.037500 0.057500
v -0.049796 -0.037500 0.028750
v -0.049796 0.037500 0.028750
v -0.028750 -0.037500 0.049796
v -0.028750 0.037500 0.049796
v -0.057500 -0.037500 0.000000
v -0.057500 0.037500 0.000000
v -0.049796 -0.037500 0.028750
v -0.049796 0.037500 0.028750
v -0.028750 -0.037500 0.049796
v -0.049796 -0.037500 0.028750
v -0.016250 -0.059500 0.028146
v -0.028146 -0.059500 0.016250
v 0.000000 -0.037500 0.057500
v -0.028750 -0.037500 0.049796
v 0.000000 -0.059500 0.032500
v -0.016250 -0.059500 0.028146
v 0.028750 -0.037500 0.049796
v 0.000000 -0.037500 0.057500
v 0.016250 -0.059500 0.028146
v 0.000000 -0.059500 0.032500
v 0.049796 -0.037500 0.028750
v 0.028750 -0.037500 0.049796
v 0.028146 -0.059500 0.016250
v 0.016250 -0.059500 0.028146
v 0.057500 -0.037500 0.000000
v 0.049796 -0.037500 0.028750
v 0.032500 -0.059500 0.000000
v 0.028146 -0.059500 0.016250
v 0.049796 -0.037500 -0.028750
v 0.057500 -0.037500 0.000000
v 0.028146 -0.059500 -0.016250
v 0.032500 -0.059500 0.000000
v 0.028750 -0.037500 -0.049796
v 0.049796 -0.037500 -0.028750
v 0.016250 -0.059500 -0.028146
v 0.028146 -0.059500 -0.016250
v 0.000000 -0.037500 -0.057500
v 0.028750 -0.037500 -0.049796
v 0.000000 -0.059500 -0.032500
v 0.016250 -0.059500 -0.028146
v -0.028750 -0.037500 -0.049796
v 0.000000 -0.037500 -0.057500
v -0.016250 -0.059500 -0.028146
v 0.000000 -0.059500 -0.032500
v -0.049796 -0.037500 -0.028750
v -0.028750 -0.037500 -0.049796
v -0.028146 -0.059500 -0.016250
v -0.016250 -0.059500 -0.028146
v -0.057500 -0.037500 0.000000
v -0.049796 -0.037500 -0.028750
v -0.032500 -0.059500 0.000000
v -0.028146 -0.059500 -0.016250
v -0.049796 -0.037500 0.028750
v -0.057500 -0.037500 0.000000
v -0.028146 -0.059500 0.016250
v -0.032500 -0.059500 0.000000
v -0.028750 0.037500 0.049796
v -0.049796 0.037500 0.028750
v -0.016250 0.059500 0.028146
v -0.028146 0.059500 0.016250
v 0.000000 0.037500 0.057500
v -0.028750 0.037500 0.049796
v 0.000000 0.059500 0.032500
v -0.016250 0.059500 0.028146
v 0.028750 0.037500 0.049796
v 0.000000 0.037500 0.057500
v 0.016250 0.059500 0.028146
v 0.000000 0.059500 0.032500
v 0.049796 0.037500 0.028750
v 0.028750 0.037500 0.049796
v 0.028146 0.059500 0.016250
v 0.016250 0.059500 0.028146
v 0.057500 0.037500 0.000000
v 0.049796 0.037500 0.028750
v 0.032500 0.059500 0.000000
v 0.028146 0.059500 0.016250
v 0.049796 0.037500 -0.028750
v 0.057500 0.037500 0.000000
v 0.028146 0.059500 -0.016250
v 0.032500 0.059500 0.000000
v 0.028750 0.037500 -0.049796
v 0.049796 0.037500 -0.028750
v 0.016250 0.059500 -0.028146
v 0.028146 0.059500 -0.016250
v 0.000000 0.037500 -0.057500
v 0.028750 0.037500 -0.049796
v 0.000000 0.059500 -0.032500
v 0.016250 0.059500 -0.028146
v -0.028750 0.037500 -0.049796
v 0.000000 0.037500 -0.057500
v -0.016250 0.059500 -0.028146
v 0.000000 0.059500 -0.032500
v -0.049796 0.037500 -0.028750
v -0.028750 0.037500 -0.049796
v -0.028146 0.059500 -0.016250
v -0.016250 0.059500 -0.028146
v -0.057500 0.037500 0.000000
v -0.049796 0.037500 -0.028750
v -0.032500 0.059500 0.000000
v -0.028146 0.059500 -0.016250
v -0.049796 0.037500 0.028750
v -0.057500 0.037500 0.000000
v -0.028146 0.059500 0.016250
v -0.032500 0.059500 0.000000
v 0.049796 -0.037500 -0.028750
v 0.049796 0.037500 -0.028750
v 0.028750 -0.037500 -0.049796
v 0.028750 0.037500 -0.049796
vt 0.362980 0.217391
vt 0.185304 0.358696
vt 0.260399 0.255254
vt 0.465561 0.744746
vt 0.185304 0.641304
vt 0.157817 0.500000
vt 0.540656 0.358696
vt 0.465561 0.255254
vt 0.568142 0.500000
vt 0.540656 0.641304
vt 0.362980 0.782609
vt 0.260399 0.744746
vt 0.157817 0.500000
vt 0.185304 0.641304
vt 0.260399 0.744746
vt 0.465561 0.744746
vt 0.540656 0.641304
vt 0.362980 0.782609
vt 0.362980 0.217391
vt 0.185304 0.358696
vt 0.465561 0.255254
vt 0.540656 0.358696
vt 0.568142 0.500000
vt 0.260399 0.255254
vt 1.000000 0.500000
vt 1.000000 0.391304
vt 1.000000 0.282609
vt 1.000000 0.717391
vt 1.000000 0.311734
vt 1.000000 0.391304
vt 1.000000 0.311734
vt 1.000000 0.608696
vt 1.000000 0.500000
vt 1.000000 0.688267
vt 1.000000 0.608696
vt 1.000000 0.688267
vt 0.704816 0.391304
vt 1.000000 0.391304
vt 1.000000 0.500000
vt 0.725959 0.500000
vt 0.689338 0.311734
vt 1.000000 0.311734
vt 1.000000 0.391304
vt 0.704816 0.391304
vt 0.683672 0.282609
vt 1.000000 0.282609
vt 1.000000 0.311734
vt 0.689338 0.311734
vt 0.689338 0.311734
vt 1.000000 0.311734
vt 1.000000 0.282609
vt 0.683672 0.282609
vt 0.704816 0.391304
vt 1.000000 0.391304
vt 1.000000 0.311734
vt 0.689338 0.311734
vt 0.725959 0.500000
vt 1.000000 0.500000
vt 1.000000 0.391304
vt 0.704816 0.391304
vt 0.704816 0.608696
vt 1.000000 0.608696
vt 1.000000 0.500000
vt 0.725959 0.500000
vt 0.689338 0.688267
vt 1.000000 0.688267
vt 1.000000 0.608696
vt 0.704816 0.608696
vt 0.683672 0.717391
vt 1.000000 0.717391
vt 1.000000 0.688267
vt 0.689338 0.688267
vt 0.689338 0.688267
vt 1.000000 0.688267
vt 1.000000 0.717391
vt 0.683672 0.717391
vt 0.704816 0.608696
vt 1.000000 0.608696
vt 1.000000 0.688267
vt 0.689338 0.688267
vt 0.725959 0.500000
vt 1.000000 0.500000
vt 1.000000 0.608696
vt 0.704816 0.608696
vt 0.048630 0.250000
vt 0.048630 0.250000
vt 0.000000 0.500000
vt 0.000000 0.500000
vt 0.181490 0.066987
vt 0.181490 0.066987
vt 0.048630 0.250000
vt 0.048630 0.250000
vt 0.362980 0.000000
vt 0.362980 0.000000
vt 0.181490 0.066987
vt 0.181490 0.066987
vt 0.544470 0.066987
vt 0.544470 0.066987
vt 0.362980 0.000000
vt 0.362980 0.000000
vt 0.704816 0.391304
vt 0.725959 0.500000
vt 0.725959 0.500000
vt 0.704816 0.391304
vt 0.725959 0.500000
vt 0.725959 0.500000
vt 0.677329 0.250000
vt 0.683672 0.282609
vt 0.689338 0.311734
vt 0.677329 0.250000
vt 0.689338 0.311734
vt 0.683672 0.717391
vt 0.677329 0.750000
vt 0.689338 0.688267
vt 0.704816 0.608696
vt 0.689338 0.688267
vt 0.677329 0.750000
vt 0.704816 0.608696
vt 0.725959 0.500000
vt 0.725959 0.500000
vt 0.725959 0.500000
vt 0.725959 0.500000
vt 0.544470 0.933013
vt 0.544470 0.933013
vt 0.677329 0.750000
vt 0.677329 0.750000
vt 0.362980 1.000000
vt 0.362980 1.000000
vt 0.544470 0.933013
vt 0.544470 0.933013
vt 0.181490 0.933013
vt 0.181490 0.933013
vt 0.362980 1.000000
vt 0.362980 1.000000
vt 0.048630 0.750000
vt 0.048630 0.750000
vt 0.181490 0.933013
vt 0.181490 0.933013
vt 0.000000 0.500000
vt 0.000000 0.500000
vt 0.048630 0.750000
vt 0.048630 0.750000
vt 0.048630 0.750000
vt 0.185304 0.641304
vt 0.260399 0.744746
vt 0.181490 0.933013
vt 0.181490 0.933013
vt 0.260399 0.744746
vt 0.362980 0.782609
vt 0.362980 1.000000
vt 0.362980 1.000000
vt 0.362980 0.782609
vt 0.465561 0.744746
vt 0.544470 0.933013
vt 0.544470 0.933013
vt 0.465561 0.744746
vt 0.540656 0.641304
vt 0.677329 0.750000
vt 0.677329 0.750000
vt 0.540656 0.641304
vt 0.568142 0.500000
vt 0.725959 0.500000
vt 0.725959 0.500000
vt 0.568142 0.500000
vt 0.540656 0.358696
vt 0.677329 0.250000
vt 0.677329 0.250000
vt 0.540656 0.358696
vt 0.465561 0.255254
vt 0.544470 0.066987
vt 0.544470 0.066987
vt 0.465561 0.255254
vt 0.362980 0.217391
vt 0.362980 0.000000
vt 0.362980 0.000000
vt 0.362980 0.217391
vt 0.260399 0.255254
vt 0.181490 0.066987
vt 0.181490 0.066987
vt 0.260399 0.255254
vt 0.185304 0.358696
vt 0.048630 0.250000
vt 0.048630 0.250000
vt 0.185304 0.358696
vt 0.157817 0.500000
vt 0.000000 0.500000
vt 0.000000 0.500000
vt 0.157817 0.500000
vt 0.185304 0.641304
vt 0.048630 0.750000
vt 0.048630 0.750000
vt 0.181490 0.933013
vt 0.260399 0.744746
vt 0.185304 0.641304
vt 0.181490 0.933013
vt 0.362980 1.000000
vt 0.362980 0.782609
vt 0.260399 0.744746
vt 0.362980 1.000000
vt 0.544470 0.933013
vt 0.465561 0.744746
vt 0.362980 0.782609
vt 0.544470 0.933013
vt 0.677329 0.750000
vt 0.540656 0.641304
vt 0.465561 0.744746
vt 0.677329 0.750000
vt 0.725959 0.500000
vt 0.568142 0.500000
vt 0.540656 0.641304
vt 0.725959 0.500000
vt 0.677329 0.250000
vt 0.540656 0.358696
vt 0.568142 0.500000
vt 0.677329 0.250000
vt 0.544470 0.066987
vt 0.465561 0.255254
vt 0.540656 0.358696
vt 0.544470 0.066987
vt 0.362980 0.000000
vt 0.362980 0.217391
vt 0.465561 0.255254
vt 0.362980 0.000000
vt 0.181490 0.066987
vt 0.260399 0.255254
vt 0.362980 0.217391
vt 0.181490 0.066987
vt 0.048630 0.250000
vt 0.185304 0.358696
vt 0.260399 0.255254
vt 0.048630 0.250000
vt 0.000000 0.500000
vt 0.157817 0.500000
vt 0.185304 0.358696
vt 0.000000 0.500000
vt 0.048630 0.750000
vt 0.185304 0.641304
vt 0.157817 0.500000
vt 0.677329 0.250000
vt 0.677329 0.250000
vt 0.544470 0.066987
vt 0.544470 0.066987
vn 0.0000 -1.0000 0.0000
vn 0.0000 1.0000 0.0000
vn 1.0000 0.0000 0.0000
vn 0.0000 -0.9659 -0.2588
vn 0.0000 -0.7071 -0.7071
vn 0.0000 -0.2588 -0.9659
vn 0.0000 0.2588 -0.9659
vn 0.0000 0.7071 -0.7071
vn 0.0000 0.9659 -0.2588
vn 0.0000 0.9659 0.2588
vn 0.0000 0.7071 0.7071
vn 0.0000 0.2588 0.9659
vn 0.0000 -0.2588 0.9659
vn 0.0000 -0.7071 0.7071
vn 0.0000 -0.9659 0.2588
vn -0.9659 0.0000 -0.2588
vn -0.7071 0.0000 -0.7071
vn -0.2588 0.0000 -0.9659
vn 0.2588 0.0000 -0.9659
vn 0.9659 0.0000 -0.2588
vn 0.9659 0.0000 0.2588
vn 0.7071 0.0000 0.7071
vn 0.2588 0.0000 0.9659
vn -0.2588 0.0000 0.9659
vn -0.7071 0.0000 0.7071
vn -0.9659 0.0000 0.2588
vn -0.4762 -0.7392 0.4762
vn -0.1743 -0.7392 0.6505
vn 0.1743 -0.7392 0.6505
vn 0.4762 -0.7392 0.4762
vn 0.6505 -0.7392 0.1743
vn 0.6505 -0.7392 -0.1743
vn 0.4762 -0.7392 -0.4762
vn 0.1743 -0.7392 -0.6505
vn -0.1743 -0.7392 -0.6505
vn -0.4762 -0.7392 -0.4762
vn -0.6505 -0.7392 -0.1743
vn -0.6505 -0.7392 0.1743
vn -0.4762 0.7392 0.4762
vn -0.1743 0.7392 0.6505
vn 0.1743 0.7392 0.6505
vn 0.4762 0.7392 0.4762
vn 0.6505 0.7392 0.1743
vn 0.6505 0.7392 -0.1743
vn 0.4762 0.7392 -0.4762
vn 0.1743 0.7392 -0.6505
vn -0.1743 0.7392 -0.6505
vn -0.4762 0.7392 -0.4762
vn -0.6505 0.7392 -0.1743
vn -0.6505 0.7392 0.1743
vn 0.7071 0.0000 -0.7071
s off
f 11/1/1 5/2/1 6/3/1
f 11/1/1 2/4/1 8/5/1
f 12/6/1 5/2/1 8/5/1
f 11/1/1 8/5/1 5/2/1
f 4/7/1 11/1/1 3/8/1
f 11/1/1 10/9/1 2/4/1
f 1/10/1 2/4/1 10/9/1
f 9/11/1 7/12/1 2/4/1
f 2/4/1 7/12/1 8/5/1
f 4/7/1 10/9/1 11/1/1
f 24/13/2 14/14/2 13/15/2
f 24/13/2 16/16/2 15/17/2
f 21/18/2 16/16/2 13/15/2
f 24/13/2 13/15/2 16/16/2
f 23/19/2 19/20/2 24/13/2
f 15/17/2 23/19/2 24/13/2
f 17/21/2 23/19/2 18/22/2
f 22/23/2 18/22/2 15/17/2
f 23/19/2 15/17/2 18/22/2
f 20/24/2 19/20/2 23/19/2
f 32/25/3 31/26/3 33/27/3
f 32/25/3 33/27/3 36/28/3
f 30/29/3 33/27/3 31/26/3
f 28/30/3 33/27/3 29/31/3
f 25/32/3 32/25/3 36/28/3
f 33/27/3 34/33/3 36/28/3
f 27/34/3 36/28/3 34/33/3
f 33/27/3 28/30/3 34/33/3
f 35/35/3 27/34/3 34/33/3
f 26/36/3 25/32/3 36/28/3
f 38/37/4 37/38/4 39/39/4
f 38/37/4 39/39/4 40/40/4
f 42/41/5 41/42/5 43/43/5
f 42/41/5 43/43/5 44/44/5
f 46/45/6 45/46/6 47/47/6
f 46/45/6 47/47/6 48/48/6
f 52/49/7 49/50/7 50/51/7
f 52/49/7 50/51/7 51/52/7
f 56/53/8 53/54/8 54/55/8
f 56/53/8 54/55/8 55/56/8
f 60/57/9 57/58/9 58/59/9
f 60/57/9 58/59/9 59/60/9
f 62/61/10 61/62/10 63/63/10
f 62/61/10 63/63/10 64/64/10
f 66/65/11 65/66/11 67/67/11
f 66/65/11 67/67/11 68/68/11
f 70/69/12 69/70/12 71/71/12
f 70/69/12 71/71/12 72/72/12
f 76/73/13 73/74/13 74/75/13
f 76/73/13 74/75/13 75/76/13
f 80/77/14 77/78/14 78/79/14
f 80/77/14 78/79/14 79/80/14
f 84/81/15 81/82/15 82/83/15
f 84/81/15 82/83/15 83/84/15
f 86/85/16 85/86/16 87/87/16
f 86/85/16 87/87/16 88/88/16
f 90/89/17 89/90/17 91/91/17
f 90/89/17 91/91/17 92/92/17
f 94/93/18 93/94/18 95/95/18
f 94/93/18 95/95/18 96/96/18
f 98/97/19 97/98/19 99/99/19
f 98/97/19 99/99/19 100/100/19
f 105/101/20 106/102/20 101/103/20
f 110/104/20 102/105/20 111/106/20
f 105/101/20 101/103/20 103/107/20
f 108/108/20 107/109/20 103/107/20
f 105/101/20 103/107/20 107/109/20
f 104/110/20 108/108/20 103/107/20
f 104/110/20 110/104/20 109/111/20
f 108/108/20 104/110/20 109/111/20
f 102/105/20 110/104/20 104/110/20
f 119/112/21 112/113/21 120/114/21
f 121/115/21 120/114/21 112/113/21
f 118/116/21 113/117/21 119/112/21
f 112/113/21 119/112/21 113/117/21
f 116/118/21 113/117/21 118/116/21
f 122/119/21 121/115/21 114/120/21
f 112/113/21 114/120/21 121/115/21
f 115/121/21 116/118/21 117/122/21
f 113/117/21 116/118/21 115/121/21
f 124/123/22 123/124/22 125/125/22
f 124/123/22 125/125/22 126/126/22
f 128/127/23 127/128/23 129/129/23
f 128/127/23 129/129/23 130/130/23
f 132/131/24 131/132/24 133/133/24
f 132/131/24 133/133/24 134/134/24
f 136/135/25 135/136/25 137/137/25
f 136/135/25 137/137/25 138/138/25
f 140/139/26 139/140/26 141/141/26
f 140/139/26 141/141/26 142/142/26
f 144/143/27 146/144/27 145/145/27
f 144/143/27 145/145/27 143/146/27
f 148/147/28 150/148/28 149/149/28
f 148/147/28 149/149/28 147/150/28
f 152/151/29 154/152/29 153/153/29
f 152/151/29 153/153/29 151/154/29
f 156/155/30 158/156/30 157/157/30
f 156/155/30 157/157/30 155/158/30
f 160/159/31 162/160/31 161/161/31
f 160/159/31 161/161/31 159/162/31
f 164/163/32 166/164/32 165/165/32
f 164/163/32 165/165/32 163/166/32
f 168/167/33 170/168/33 169/169/33
f 168/167/33 169/169/33 167/170/33
f 172/171/34 174/172/34 173/173/34
f 172/171/34 173/173/34 171/174/34
f 176/175/35 178/176/35 177/177/35
f 176/175/35 177/177/35 175/178/35
f 180/179/36 182/180/36 181/181/36
f 180/179/36 181/181/36 179/182/36
f 184/183/37 186/184/37 185/185/37
f 184/183/37 185/185/37 183/186/37
f 188/187/38 190/188/38 189/189/38
f 188/187/38 189/189/38 187/190/38
f 192/191/39 191/192/39 193/193/39
f 192/191/39 193/193/39 194/194/39
f 196/195/40 195/196/40 197/197/40
f 196/195/40 197/197/40 198/198/40
f 200/199/41 199/200/41 201/201/41
f 200/199/41 201/201/41 202/202/41
f 204/203/42 203/204/42 205/205/42
f 204/203/42 205/205/42 206/206/42
f 208/207/43 207/208/43 209/209/43
f 208/207/43 209/209/43 210/210/43
f 212/211/44 211/212/44 213/213/44
f 212/211/44 213/213/44 214/214/44
f 216/215/45 215/216/45 217/217/45
f 216/215/45 217/217/45 218/218/45
f 220/219/46 219/220/46 221/221/46
f 220/219/46 221/221/46 222/222/46
f 224/223/47 223/224/47 225/225/47
f 224/223/47 225/225/47 226/226/47
f 228/227/48 227/228/48 229/229/48
f 228/227/48 229/229/48 230/230/48
f 232/231/49 231/232/49 233/233/49
f 232/231/49 233/233/49 234/234/49
f 236/235/50 235/236/50 237/237/50
f 236/235/50 237/237/50 238/238/50
f 240/239/51 239/240/51 241/241/51
f 240/239/51 241/241/51 242/242/51
